<svg width="6491" height="1328" viewBox="0 0 6491 1328" fill="none" xmlns="http://www.w3.org/2000/svg">
<path d="M1152.7 466.042H700.489V415.563H1152.7V466.042ZM1062.26 650.714C1062.26 583.408 1030.43 549.755 966.769 549.755C919.655 549.755 880.253 574.434 848.563 623.791C820.518 667.541 806.496 714.094 806.496 763.452V885.865L737.507 849.688V533.349H809.862V583.408L847.301 555.223C880.393 530.264 915.308 517.784 952.046 517.784C1001.96 517.784 1043.33 537.135 1076.14 575.836C1106.99 612.293 1122.42 655.902 1122.42 706.662C1122.42 770.323 1095.49 831.459 1041.65 890.072L960.459 839.172C985.699 814.212 1007.15 791.216 1024.82 770.183C1049.78 740.456 1062.26 700.633 1062.26 650.714ZM1557.38 466.042H1277.22V533.349C1278.34 533.349 1279.46 533.91 1280.58 535.031C1281.71 536.153 1282.69 536.714 1283.53 536.714C1281.29 536.714 1280.02 536.574 1279.74 536.293C1279.74 534.891 1300.64 530.404 1342.42 522.832C1357.85 520.028 1373.13 518.625 1388.28 518.625C1451.37 518.625 1491.9 536.293 1509.85 571.629C1521.91 595.186 1527.94 642.721 1527.94 714.234V876.19C1522.05 873.946 1499.75 864.832 1461.05 848.847C1461.05 839.873 1459.23 834.124 1455.58 831.6C1440.72 840.293 1428.52 846.884 1418.98 851.371C1388.7 865.673 1353.5 872.825 1313.4 872.825C1258.15 872.825 1215.52 855.437 1185.51 820.662C1170.93 803.836 1163.64 785.046 1163.64 764.293C1163.64 741.017 1175.14 717.88 1198.13 694.884C1242.73 650.293 1298.11 627.998 1364.3 627.998C1404.4 627.998 1436.65 637.253 1461.05 655.762V617.061C1448.71 601.356 1436.65 590.839 1424.87 585.511C1413.37 580.183 1397.53 577.799 1377.34 578.36C1332.19 579.201 1290.82 587.474 1253.24 603.179C1236.42 610.19 1220.01 616.5 1204.02 622.109V590.98C1207.67 587.895 1213 583.267 1220.01 577.098C1221.13 575.696 1221.83 574.854 1222.11 574.574V466.042H1135.88V415.563H1557.38V466.042ZM1461.05 732.323C1461.05 719.983 1446.33 708.906 1416.88 699.09C1392.48 690.958 1372.15 686.891 1355.88 686.891C1296.71 686.891 1249.32 708.205 1213.7 750.832C1199.4 767.939 1192.25 781.961 1192.25 792.899C1198.13 813.371 1221.27 823.607 1261.66 823.607C1313.82 823.607 1361.49 810.566 1404.68 784.485C1442.26 761.769 1461.05 744.382 1461.05 732.323ZM1967.11 466.042H1686.95V533.349C1688.07 533.349 1689.19 533.91 1690.31 535.031C1691.43 536.153 1692.42 536.714 1693.26 536.714C1691.01 536.714 1689.75 536.574 1689.47 536.293C1689.47 534.891 1710.36 530.404 1752.15 522.832C1767.57 520.028 1782.86 518.625 1798 518.625C1861.1 518.625 1901.63 536.293 1919.57 571.629C1931.63 595.186 1937.66 642.721 1937.66 714.234V876.19C1931.77 873.946 1909.48 864.832 1870.78 848.847C1870.78 839.873 1868.95 834.124 1865.31 831.6C1850.44 840.293 1838.25 846.884 1828.71 851.371C1798.42 865.673 1763.23 872.825 1723.12 872.825C1667.88 872.825 1625.25 855.437 1595.24 820.662C1580.66 803.836 1573.37 785.046 1573.37 764.293C1573.37 741.017 1584.87 717.88 1607.86 694.884C1652.45 650.293 1707.84 627.998 1774.02 627.998C1814.13 627.998 1846.38 637.253 1870.78 655.762V617.061C1858.44 601.356 1846.38 590.839 1834.6 585.511C1823.1 580.183 1807.26 577.799 1787.06 578.36C1741.91 579.201 1700.55 587.474 1662.97 603.179C1646.14 610.19 1629.74 616.5 1613.75 622.109V590.98C1617.4 587.895 1622.73 583.267 1629.74 577.098C1630.86 575.696 1631.56 574.854 1631.84 574.574V466.042H1545.6V415.563H1967.11V466.042ZM1870.78 732.323C1870.78 719.983 1856.05 708.906 1826.61 699.09C1802.21 690.958 1781.88 686.891 1765.61 686.891C1706.44 686.891 1659.04 708.205 1623.43 750.832C1609.12 767.939 1601.97 781.961 1601.97 792.899C1607.86 813.371 1631 823.607 1671.38 823.607C1723.54 823.607 1771.22 810.566 1814.41 784.485C1851.99 761.769 1870.78 744.382 1870.78 732.323ZM2450.03 466.042H2394.92L2394.08 877.031L2317.52 844.22V784.065C2272.09 842.677 2227.5 871.983 2183.75 871.983C2155.99 871.983 2125.7 860.345 2092.89 837.068C2064.84 817.157 2041.57 793.88 2023.06 767.238C2001.18 735.828 1990.39 705.26 1990.67 675.533C1990.95 648.33 2005.95 616.78 2035.68 580.884C2069.05 540.5 2109.29 520.308 2156.41 520.308C2186.42 520.308 2216.56 533.068 2246.85 558.589C2256.11 566.16 2279.66 590.559 2317.52 631.784V466.042H1957.43V415.563H2317.52C2317.52 357.511 2312.61 312.079 2302.8 279.267C2288.22 230.47 2255.68 172.419 2205.21 105.112C2204.08 104.552 2203.52 102.308 2203.52 98.3818C2203.52 95.0165 2204.36 92.7729 2206.05 91.6512H2286.39C2358.75 171.577 2394.92 279.548 2394.92 415.563H2450.03V466.042ZM2297.33 657.445C2297.33 635.57 2285.41 616.78 2261.57 601.076C2240.26 587.053 2218.11 580.042 2195.11 580.042C2178.28 580.042 2157.25 587.895 2132.01 603.6C2077.04 637.814 2049.56 678.197 2049.56 724.751C2049.56 750.271 2056.43 772.426 2070.17 791.216C2085.32 812.249 2105.09 822.766 2129.49 822.766C2154.73 822.766 2181.65 811.268 2210.25 788.271C2230.16 772.286 2248.67 752.655 2265.78 729.378C2286.81 700.773 2297.33 676.795 2297.33 657.445ZM3317.44 466.042H3037.28V533.349C3038.4 533.349 3039.52 533.91 3040.64 535.031C3041.77 536.153 3042.75 536.714 3043.59 536.714C3041.35 536.714 3040.08 536.574 3039.8 536.293C3039.8 534.891 3060.7 530.404 3102.48 522.832C3117.91 520.028 3133.19 518.625 3148.33 518.625C3211.43 518.625 3251.96 536.293 3269.91 571.629C3281.97 595.186 3287.99 642.721 3287.99 714.234V876.19C3282.11 873.946 3259.81 864.832 3221.11 848.847C3221.11 839.873 3219.29 834.124 3215.64 831.6C3200.78 840.293 3188.58 846.884 3179.04 851.371C3148.76 865.673 3113.56 872.825 3073.46 872.825C3018.21 872.825 2975.58 855.437 2945.57 820.662C2930.99 803.836 2923.7 785.046 2923.7 764.293C2923.7 741.017 2935.2 717.88 2958.19 694.884C3002.78 650.293 3058.17 627.998 3124.36 627.998C3164.46 627.998 3196.71 637.253 3221.11 655.762V617.061C3208.77 601.356 3196.71 590.839 3184.93 585.511C3173.43 580.183 3157.59 577.799 3137.4 578.36C3092.25 579.201 3050.88 587.474 3013.3 603.179C2996.47 610.19 2980.07 616.5 2964.08 622.109V590.98C2967.73 587.895 2973.06 583.267 2980.07 577.098C2981.19 575.696 2981.89 574.854 2982.17 574.574V466.042H2895.94V415.563H3317.44V466.042ZM3221.11 732.323C3221.11 719.983 3206.39 708.906 3176.94 699.09C3152.54 690.958 3132.21 686.891 3115.94 686.891C3056.77 686.891 3009.37 708.205 2973.76 750.832C2959.46 767.939 2952.3 781.961 2952.3 792.899C2958.19 813.371 2981.33 823.607 3021.71 823.607C3073.88 823.607 3121.55 810.566 3164.74 784.485C3202.32 761.769 3221.11 744.382 3221.11 732.323ZM3764.19 466.042H3311.97V415.563H3764.19V466.042ZM3673.74 650.714C3673.74 583.408 3641.91 549.755 3578.25 549.755C3531.14 549.755 3491.74 574.434 3460.05 623.791C3432 667.541 3417.98 714.094 3417.98 763.452V885.865L3348.99 849.688V533.349H3421.35V583.408L3458.78 555.223C3491.88 530.264 3526.79 517.784 3563.53 517.784C3613.45 517.784 3654.81 537.135 3687.63 575.836C3718.47 612.293 3733.9 655.902 3733.9 706.662C3733.9 770.323 3706.98 831.459 3653.13 890.072L3571.94 839.172C3597.18 814.212 3618.64 791.216 3636.3 770.183C3661.26 740.456 3673.74 700.633 3673.74 650.714ZM4130.16 466.042H3917.31V804.677C3917.31 814.212 3920.39 823.467 3926.56 832.441C3933.01 842.256 3940.87 847.164 3950.12 847.164C3991.91 847.164 4012.8 803.976 4012.8 717.6L4097.35 765.976C4065.1 837.489 4015.18 873.105 3947.6 872.825C3908.33 872.544 3877.77 854.596 3855.89 818.98C3846.36 803.555 3841.59 788.131 3841.59 772.707V466.042H3753.67V415.563H3841.59V274.219L3917.31 326.802V415.563H4130.16V466.042ZM4535.69 466.042H4255.52V533.349C4256.64 533.349 4257.77 533.91 4258.89 535.031C4260.01 536.153 4260.99 536.714 4261.83 536.714C4259.59 536.714 4258.33 536.574 4258.05 536.293C4258.05 534.891 4278.94 530.404 4320.73 522.832C4336.15 520.028 4351.43 518.625 4366.58 518.625C4429.68 518.625 4470.2 536.293 4488.15 571.629C4500.21 595.186 4506.24 642.721 4506.24 714.234V876.19C4500.35 873.946 4478.05 864.832 4439.35 848.847C4439.35 839.873 4437.53 834.124 4433.88 831.6C4419.02 840.293 4406.82 846.884 4397.29 851.371C4367 865.673 4331.8 872.825 4291.7 872.825C4236.45 872.825 4193.83 855.437 4163.82 820.662C4149.24 803.836 4141.94 785.046 4141.94 764.293C4141.94 741.017 4153.44 717.88 4176.44 694.884C4221.03 650.293 4276.42 627.998 4342.6 627.998C4382.7 627.998 4414.95 637.253 4439.35 655.762V617.061C4427.01 601.356 4414.95 590.839 4403.18 585.511C4391.68 580.183 4375.83 577.799 4355.64 578.36C4310.49 579.201 4269.12 587.474 4231.55 603.179C4214.72 610.19 4198.31 616.5 4182.33 622.109V590.98C4185.97 587.895 4191.3 583.267 4198.31 577.098C4199.43 575.696 4200.14 574.854 4200.42 574.574V466.042H4114.18V415.563H4535.69V466.042ZM4439.35 732.323C4439.35 719.983 4424.63 708.906 4395.18 699.09C4370.78 690.958 4350.45 686.891 4334.19 686.891C4275.01 686.891 4227.62 708.205 4192 750.832C4177.7 767.939 4170.55 781.961 4170.55 792.899C4176.44 813.371 4199.57 823.607 4239.96 823.607C4292.12 823.607 4339.8 810.566 4382.98 784.485C4420.56 761.769 4439.35 744.382 4439.35 732.323ZM4639.59 242.249C4639.59 264.684 4623.6 285.017 4591.63 303.245C4578.45 310.817 4566.53 314.603 4555.88 314.603C4562.05 308.714 4570.88 299.319 4582.38 286.419C4585.46 282.212 4587.01 277.865 4587.01 273.378C4587.01 264.965 4577.47 253.186 4558.4 238.042L4602.57 197.238C4610.7 197.238 4619.12 202.707 4627.81 213.644C4635.66 224.02 4639.59 233.555 4639.59 242.249ZM4661.04 466.042H4529.38V415.563H4661.04V466.042ZM5079.18 466.042H4815.85C4816.41 467.164 4816.69 473.614 4816.69 485.393V515.26C4824.54 514.138 4834.22 513.577 4845.71 513.577C4955.65 513.577 5010.62 557.186 5010.62 644.404C5010.62 704.699 4958.59 764.714 4854.55 824.448C4910.92 824.448 4953.69 821.083 4982.85 814.352C5002.76 809.865 5020.29 803.275 5035.43 794.581L4999.26 871.983H4694.28L4711.52 834.124C4791.73 828.515 4855.11 802.153 4901.66 755.039C4925.22 731.201 4937 703.297 4937 671.327C4937 634.589 4919.89 606.544 4885.68 587.194C4857.91 571.489 4824.26 563.636 4784.72 563.636C4759.76 563.636 4732.14 567.002 4701.85 573.732C4714.19 559.43 4732.28 546.529 4756.11 535.031V466.042H4654.73V415.563H5079.18V466.042ZM5431.28 466.042H5350.93V521.149L5380.38 523.253L5348.41 585.09C5304.94 575.836 5242.96 571.208 5162.48 571.208V659.969C5193.04 649.031 5224.87 643.563 5257.97 643.563C5292.18 643.563 5324.15 651.135 5353.88 666.279C5387.53 683.386 5404.36 706.522 5404.36 735.688C5404.36 783.644 5374.91 821.784 5316.02 850.109C5285.73 864.692 5249.69 871.983 5207.91 871.983C5194.17 871.983 5166.12 867.637 5123.77 858.943L5192.76 800.47C5216.04 816.456 5247.87 824.448 5288.25 824.448C5306.76 824.448 5319.94 821.083 5327.8 814.352C5335.93 807.341 5340 794.721 5340 776.493C5340 745.363 5324.29 721.946 5292.88 706.242C5268.2 693.902 5238.48 687.732 5203.7 687.732C5172.01 687.732 5145.65 694.042 5124.62 706.662V522.411H5300.45V466.042H5066.98V415.563H5431.28V466.042Z" fill="#D9B70E"/>
<path d="M2836.24 1047.95C2843.7 1068.62 2847.44 1090.74 2847.44 1114.28C2847.44 1158.51 2833.08 1196.41 2804.36 1228C2775.64 1259.59 2729.41 1275.1 2665.66 1274.53C2616.26 1273.95 2578.93 1265.34 2553.66 1248.68C2528.96 1232.02 2516.61 1209.05 2516.61 1179.76C2516.61 1153.91 2526.66 1124.33 2546.77 1091.02C2566.87 1058.28 2595.59 1024.4 2632.92 989.363C2643.83 979.599 2651.87 970.122 2657.04 960.933C2662.78 951.743 2665.66 943.702 2665.66 936.81C2665.66 930.492 2663.36 925.323 2658.76 921.303C2654.74 917.857 2648.71 916.134 2640.67 916.134C2629.19 916.134 2615.98 919.867 2601.04 927.333C2619.42 911.252 2637.8 903.211 2656.18 903.211C2666.52 903.211 2674.85 905.795 2681.16 910.964C2687.48 916.708 2690.64 923.887 2690.64 932.502C2690.64 946.287 2682.31 961.22 2665.66 977.302C2624.3 1016.36 2592.14 1053.4 2569.17 1088.44C2546.77 1123.47 2535.57 1154.2 2535.57 1180.62C2535.57 1205.32 2545.9 1224.27 2566.58 1237.48C2587.83 1251.27 2620 1258.44 2663.07 1259.02C2744.63 1259.59 2785.41 1232.89 2785.41 1178.9C2785.41 1163.96 2782.82 1148.74 2777.65 1133.24C2773.06 1118.3 2765.88 1097.91 2756.12 1072.07L2746.64 1047.95C2739.75 1028.99 2735.15 1010.33 2732.85 991.947C2730.56 974.143 2729.41 952.892 2729.41 928.195V876.504V846.35C2729.41 826.248 2721.94 817.059 2707.01 818.782C2684.04 824.525 2664.79 833.14 2649.29 844.627C2634.35 855.54 2624.02 867.314 2618.27 879.95C2613.68 868.463 2602.77 858.699 2585.53 850.658C2568.3 842.043 2544.76 832.279 2514.89 821.366L2490.77 812.751C2496.51 810.454 2501.68 806.433 2506.27 800.69C2510.87 794.946 2513.17 787.767 2513.17 779.152V549.987C2513.17 543.095 2510.87 536.49 2506.27 530.172C2502.25 523.28 2497.09 518.685 2490.77 516.388C2521.78 503.752 2544.18 481.353 2557.97 449.189C2571.75 481.353 2594.15 503.752 2625.16 516.388C2618.85 518.685 2613.39 523.28 2608.8 530.172C2604.78 536.49 2602.77 543.095 2602.77 549.987V811.028H2601.9L2602.77 811.89C2619.42 800.403 2642.97 794.659 2673.41 794.659C2685.47 794.659 2697.53 795.521 2709.59 797.244L2717.35 798.105C2721.37 798.105 2724.24 796.957 2725.96 794.659C2728.26 791.787 2729.41 786.618 2729.41 779.152V549.987C2729.41 543.095 2727.11 536.49 2722.52 530.172C2718.5 523.28 2713.33 518.685 2707.01 516.388C2738.02 503.752 2760.42 481.353 2774.21 449.189C2787.99 481.353 2810.39 503.752 2841.41 516.388C2835.09 518.685 2829.63 523.28 2825.04 530.172C2821.02 536.49 2819.01 543.095 2819.01 549.987V779.152C2819.01 786.044 2821.02 792.936 2825.04 799.828C2829.63 806.146 2835.09 810.454 2841.41 812.751C2835.09 815.048 2829.63 819.643 2825.04 826.535C2821.02 832.853 2819.01 839.458 2819.01 846.35V876.504V926.472C2819.01 951.169 2820.16 972.707 2822.45 991.086C2824.75 1009.46 2829.35 1028.42 2836.24 1047.95Z" fill="#D9B70E"/>
<path d="M481.144 279.646V295.28C492.311 314.263 499.941 346.088 504.036 390.755C508.503 443.983 512.783 477.297 516.878 490.697C541.444 573.331 564.15 632.887 584.995 669.365C592.067 681.648 605.281 709.379 624.637 752.557C643.248 793.874 659.067 825.513 672.095 847.474C715.273 919.686 764.593 951.697 820.054 943.508C804.421 962.119 770.176 984.266 717.32 1009.95C696.104 1020 679.167 1022.23 666.512 1016.65C654.973 1011.07 640.642 995.433 623.52 969.75C582.575 909.077 548.703 836.121 521.903 750.882C512.225 738.599 492.125 686.487 461.602 594.548C454.53 572.587 448.947 545.042 444.852 511.914C439.269 466.875 435.361 439.144 433.127 428.722C432.755 425.744 431.08 415.136 428.102 396.897C426.241 382.752 424.008 371.585 421.402 363.397C414.33 337.713 401.674 321.707 383.435 315.38C381.202 314.635 330.021 316.682 229.893 321.521C228.404 330.827 218.354 340.877 199.743 351.671C193.787 355.022 185.97 359.116 176.293 363.955C166.243 368.794 160.101 371.772 157.867 372.888C155.634 380.333 152.656 388.708 148.934 398.013C143.723 410.669 140.745 417.927 140.001 419.789C133.673 436.166 130.881 453.289 131.626 471.155C125.298 439.144 135.72 396.897 162.892 344.413C190.065 292.674 219.471 257.871 251.11 240.004C287.588 218.787 331.696 213.204 383.435 223.254C397.208 225.488 413.958 235.351 433.686 252.846C453.413 269.224 469.233 278.157 481.144 279.646ZM115.992 603.481V593.431C121.948 590.826 151.354 570.353 204.209 532.014C239.943 506.331 275.304 496.281 310.293 501.864C315.504 511.17 328.16 524.197 348.26 540.947C349.377 541.32 351.61 541.506 354.96 541.506C357.938 541.878 360.171 542.25 361.66 542.622C370.966 554.534 372.269 574.82 365.569 603.481C363.707 611.67 360.544 623.395 356.077 638.656C351.238 653.545 348.26 663.595 347.143 668.806C347.516 649.451 340.443 630.095 325.927 610.74C311.782 592.128 294.102 577.425 272.885 566.631C250.179 555.092 228.962 550.625 209.234 553.231C186.529 556.209 168.848 567.562 156.192 587.289C154.331 588.034 147.817 591.012 136.651 596.223C128.462 599.573 121.576 601.992 115.992 603.481ZM54.5753 999.342H48.9919C24.0529 992.269 9.90835 970.308 6.55834 933.458C3.95277 899.213 9.90835 871.855 24.4251 851.382C56.8086 806.716 104.453 787.546 167.359 793.874C230.265 799.829 279.957 815.649 316.435 841.332C322.391 845.799 332.068 851.755 345.468 859.199C362.219 868.877 373.571 875.577 379.527 879.299C407.072 896.794 424.194 912.613 430.894 926.758C436.105 917.08 442.247 910.008 449.319 905.541C455.647 901.447 461.23 900.33 466.069 902.191C470.908 904.424 472.955 908.705 472.211 915.033C471.466 922.849 467.186 931.783 459.369 941.833C454.53 944.438 438.152 957.652 410.235 981.475C390.135 998.597 371.152 1006.04 353.285 1003.81C347.33 970.308 324.438 935.133 284.61 898.283C234.732 851.755 195.648 828.863 167.359 829.607C165.87 829.607 143.537 838.168 100.359 855.291C100.359 855.663 90.681 858.269 71.3253 863.108C59.7864 866.085 51.0391 870.924 45.0835 877.624C32.0557 892.513 25.7279 914.288 26.1001 942.95C26.4723 973.844 35.964 992.642 54.5753 999.342ZM22.1918 974.216C8.04723 952.627 3.02221 926.386 7.11667 895.491C7.86112 888.047 12.1417 884.697 19.9584 885.441C27.4029 886.185 30.7529 890.28 30.0085 897.724C27.0307 918.941 29.0779 937.552 36.1502 953.558C44.3391 973.286 58.4836 983.894 78.5837 985.383C111.339 987.616 139.256 972.728 162.334 940.716C176.851 920.616 192.484 892.513 209.234 856.407C230.079 810.996 244.037 782.149 251.11 769.865C322.204 643.681 360.916 573.889 367.244 560.489C405.583 477.855 424.194 400.991 423.077 329.896C423.077 322.824 426.799 319.66 434.244 320.405C442.061 321.149 445.969 325.057 445.969 332.13C447.458 414.391 421.961 507.075 369.477 610.181C356.821 635.12 332.999 678.112 298.01 739.157C267.115 793.502 244.41 836.307 229.893 867.574C209.793 910.008 192.67 940.344 178.526 958.583C152.842 990.967 123.995 1007.53 91.9838 1008.27C61.0892 1009.39 37.8252 998.039 22.1918 974.216ZM413.585 673.832C466.069 677.554 495.661 679.415 502.361 679.415C509.805 679.787 513.155 683.695 512.411 691.14C511.667 698.957 507.758 702.679 500.686 702.307C493.241 702.307 464.58 700.446 414.702 696.723C380.085 694.118 351.424 694.304 328.718 697.282C321.274 698.026 316.993 694.676 315.877 687.232C314.388 679.787 317.366 675.507 324.81 674.39C348.26 671.412 377.852 671.226 413.585 673.832Z" fill="#D9B70E"/>
</svg>
