<svg width="9169" height="3521" viewBox="0 0 9169 3521" fill="none" xmlns="http://www.w3.org/2000/svg">
<path d="M3830.7 1430.04H3378.49V1379.56H3830.7V1430.04ZM3740.26 1614.71C3740.26 1547.41 3708.43 1513.75 3644.77 1513.75C3597.66 1513.75 3558.25 1538.43 3526.56 1587.79C3498.52 1631.54 3484.5 1678.09 3484.5 1727.45V1849.87L3415.51 1813.69V1497.35H3487.86V1547.41L3525.3 1519.22C3558.39 1494.26 3593.31 1481.78 3630.05 1481.78C3679.96 1481.78 3721.33 1501.13 3754.14 1539.84C3784.99 1576.29 3800.42 1619.9 3800.42 1670.66C3800.42 1734.32 3773.49 1795.46 3719.65 1854.07L3638.46 1803.17C3663.7 1778.21 3685.15 1755.22 3702.82 1734.18C3727.78 1704.46 3740.26 1664.63 3740.26 1614.71ZM4235.38 1430.04H3955.22V1497.35C3956.34 1497.35 3957.46 1497.91 3958.58 1499.03C3959.71 1500.15 3960.69 1500.71 3961.53 1500.71C3959.29 1500.71 3958.02 1500.57 3957.74 1500.29C3957.74 1498.89 3978.64 1494.4 4020.42 1486.83C4035.85 1484.03 4051.13 1482.63 4066.28 1482.63C4129.37 1482.63 4169.9 1500.29 4187.85 1535.63C4199.91 1559.19 4205.94 1606.72 4205.94 1678.23V1840.19C4200.05 1837.95 4177.75 1828.83 4139.05 1812.85C4139.05 1803.87 4137.23 1798.12 4133.58 1795.6C4118.72 1804.29 4106.52 1810.88 4096.98 1815.37C4066.7 1829.67 4031.5 1836.82 3991.4 1836.82C3936.15 1836.82 3893.52 1819.44 3863.51 1784.66C3848.93 1767.84 3841.64 1749.05 3841.64 1728.29C3841.64 1705.02 3853.14 1681.88 3876.13 1658.88C3920.73 1614.29 3976.11 1592 4042.3 1592C4082.4 1592 4114.65 1601.25 4139.05 1619.76V1581.06C4126.71 1565.36 4114.65 1554.84 4102.87 1549.51C4091.37 1544.18 4075.53 1541.8 4055.34 1542.36C4010.19 1543.2 3968.82 1551.47 3931.24 1567.18C3914.42 1574.19 3898.01 1580.5 3882.02 1586.11V1554.98C3885.67 1551.89 3891 1547.27 3898.01 1541.1C3899.13 1539.7 3899.83 1538.85 3900.11 1538.57V1430.04H3813.88V1379.56H4235.38V1430.04ZM4139.05 1696.32C4139.05 1683.98 4124.33 1672.91 4094.88 1663.09C4070.48 1654.96 4050.15 1650.89 4033.88 1650.89C3974.71 1650.89 3927.32 1672.2 3891.7 1714.83C3877.4 1731.94 3870.25 1745.96 3870.25 1756.9C3876.13 1777.37 3899.27 1787.61 3939.66 1787.61C3991.82 1787.61 4039.49 1774.57 4082.68 1748.49C4120.26 1725.77 4139.05 1708.38 4139.05 1696.32ZM4645.11 1430.04H4364.95V1497.35C4366.07 1497.35 4367.19 1497.91 4368.31 1499.03C4369.43 1500.15 4370.42 1500.71 4371.26 1500.71C4369.01 1500.71 4367.75 1500.57 4367.47 1500.29C4367.47 1498.89 4388.36 1494.4 4430.15 1486.83C4445.57 1484.03 4460.86 1482.63 4476 1482.63C4539.1 1482.63 4579.63 1500.29 4597.57 1535.63C4609.63 1559.19 4615.66 1606.72 4615.66 1678.23V1840.19C4609.77 1837.95 4587.48 1828.83 4548.78 1812.85C4548.78 1803.87 4546.95 1798.12 4543.31 1795.6C4528.44 1804.29 4516.25 1810.88 4506.71 1815.37C4476.42 1829.67 4441.23 1836.82 4401.12 1836.82C4345.88 1836.82 4303.25 1819.44 4273.24 1784.66C4258.66 1767.84 4251.37 1749.05 4251.37 1728.29C4251.37 1705.02 4262.87 1681.88 4285.86 1658.88C4330.45 1614.29 4385.84 1592 4452.02 1592C4492.13 1592 4524.38 1601.25 4548.78 1619.76V1581.06C4536.44 1565.36 4524.38 1554.84 4512.6 1549.51C4501.1 1544.18 4485.26 1541.8 4465.06 1542.36C4419.91 1543.2 4378.55 1551.47 4340.97 1567.18C4324.14 1574.19 4307.74 1580.5 4291.75 1586.11V1554.98C4295.4 1551.89 4300.73 1547.27 4307.74 1541.1C4308.86 1539.7 4309.56 1538.85 4309.84 1538.57V1430.04H4223.6V1379.56H4645.11V1430.04ZM4548.78 1696.32C4548.78 1683.98 4534.05 1672.91 4504.61 1663.09C4480.21 1654.96 4459.88 1650.89 4443.61 1650.89C4384.44 1650.89 4337.04 1672.2 4301.43 1714.83C4287.12 1731.94 4279.97 1745.96 4279.97 1756.9C4285.86 1777.37 4309 1787.61 4349.38 1787.61C4401.54 1787.61 4449.22 1774.57 4492.41 1748.49C4529.99 1725.77 4548.78 1708.38 4548.78 1696.32ZM5128.03 1430.04H5072.92L5072.08 1841.03L4995.52 1808.22V1748.06C4950.09 1806.68 4905.5 1835.98 4861.75 1835.98C4833.99 1835.98 4803.7 1824.35 4770.89 1801.07C4742.84 1781.16 4719.57 1757.88 4701.06 1731.24C4679.18 1699.83 4668.39 1669.26 4668.67 1639.53C4668.95 1612.33 4683.95 1580.78 4713.68 1544.88C4747.05 1504.5 4787.29 1484.31 4834.41 1484.31C4864.42 1484.31 4894.56 1497.07 4924.85 1522.59C4934.11 1530.16 4957.66 1554.56 4995.52 1595.78V1430.04H4635.43V1379.56H4995.52C4995.52 1321.51 4990.61 1276.08 4980.8 1243.27C4966.22 1194.47 4933.68 1136.42 4883.21 1069.11C4882.08 1068.55 4881.52 1066.31 4881.52 1062.38C4881.52 1059.02 4882.36 1056.77 4884.05 1055.65H4964.39C5036.75 1135.58 5072.92 1243.55 5072.92 1379.56H5128.03V1430.04ZM4975.33 1621.44C4975.33 1599.57 4963.41 1580.78 4939.57 1565.08C4918.26 1551.05 4896.11 1544.04 4873.11 1544.04C4856.28 1544.04 4835.25 1551.89 4810.01 1567.6C4755.04 1601.81 4727.56 1642.2 4727.56 1688.75C4727.56 1714.27 4734.43 1736.43 4748.17 1755.22C4763.32 1776.25 4783.09 1786.77 4807.49 1786.77C4832.73 1786.77 4859.65 1775.27 4888.25 1752.27C4908.16 1736.29 4926.67 1716.65 4943.78 1693.38C4964.81 1664.77 4975.33 1640.8 4975.33 1621.44ZM5995.44 1430.04H5715.28V1497.35C5716.4 1497.35 5717.52 1497.91 5718.64 1499.03C5719.77 1500.15 5720.75 1500.71 5721.59 1500.71C5719.35 1500.71 5718.08 1500.57 5717.8 1500.29C5717.8 1498.89 5738.7 1494.4 5780.48 1486.83C5795.91 1484.03 5811.19 1482.63 5826.33 1482.63C5889.43 1482.63 5929.96 1500.29 5947.91 1535.63C5959.97 1559.19 5965.99 1606.72 5965.99 1678.23V1840.19C5960.11 1837.95 5937.81 1828.83 5899.11 1812.85C5899.11 1803.87 5897.29 1798.12 5893.64 1795.6C5878.78 1804.29 5866.58 1810.88 5857.04 1815.37C5826.76 1829.67 5791.56 1836.82 5751.46 1836.82C5696.21 1836.82 5653.58 1819.44 5623.57 1784.66C5608.99 1767.84 5601.7 1749.05 5601.7 1728.29C5601.7 1705.02 5613.2 1681.88 5636.19 1658.88C5680.78 1614.29 5736.17 1592 5802.36 1592C5842.46 1592 5874.71 1601.25 5899.11 1619.76V1581.06C5886.77 1565.36 5874.71 1554.84 5862.93 1549.51C5851.43 1544.18 5835.59 1541.8 5815.4 1542.36C5770.25 1543.2 5728.88 1551.47 5691.3 1567.18C5674.47 1574.19 5658.07 1580.5 5642.08 1586.11V1554.98C5645.73 1551.89 5651.06 1547.27 5658.07 1541.1C5659.19 1539.7 5659.89 1538.85 5660.17 1538.57V1430.04H5573.94V1379.56H5995.44V1430.04ZM5899.11 1696.32C5899.11 1683.98 5884.39 1672.91 5854.94 1663.09C5830.54 1654.96 5810.21 1650.89 5793.94 1650.89C5734.77 1650.89 5687.37 1672.2 5651.76 1714.83C5637.46 1731.94 5630.3 1745.96 5630.3 1756.9C5636.19 1777.37 5659.33 1787.61 5699.71 1787.61C5751.88 1787.61 5799.55 1774.57 5842.74 1748.49C5880.32 1725.77 5899.11 1708.38 5899.11 1696.32ZM6442.19 1430.04H5989.97V1379.56H6442.19V1430.04ZM6351.74 1614.71C6351.74 1547.41 6319.91 1513.75 6256.25 1513.75C6209.14 1513.75 6169.74 1538.43 6138.05 1587.79C6110 1631.54 6095.98 1678.09 6095.98 1727.45V1849.87L6026.99 1813.69V1497.35H6099.35V1547.41L6136.78 1519.22C6169.88 1494.26 6204.79 1481.78 6241.53 1481.78C6291.45 1481.78 6332.81 1501.13 6365.63 1539.84C6396.47 1576.29 6411.9 1619.9 6411.9 1670.66C6411.9 1734.32 6384.98 1795.46 6331.13 1854.07L6249.94 1803.17C6275.18 1778.21 6296.64 1755.22 6314.3 1734.18C6339.26 1704.46 6351.74 1664.63 6351.74 1614.71ZM6808.16 1430.04H6595.31V1768.68C6595.31 1778.21 6598.39 1787.47 6604.56 1796.44C6611.01 1806.26 6618.87 1811.16 6628.12 1811.16C6669.91 1811.16 6690.8 1767.98 6690.8 1681.6L6775.35 1729.98C6743.1 1801.49 6693.18 1837.11 6625.6 1836.82C6586.33 1836.54 6555.77 1818.6 6533.89 1782.98C6524.36 1767.56 6519.59 1752.13 6519.59 1736.71V1430.04H6431.67V1379.56H6519.59V1238.22L6595.31 1290.8V1379.56H6808.16V1430.04ZM7213.69 1430.04H6933.52V1497.35C6934.64 1497.35 6935.77 1497.91 6936.89 1499.03C6938.01 1500.15 6938.99 1500.71 6939.83 1500.71C6937.59 1500.71 6936.33 1500.57 6936.05 1500.29C6936.05 1498.89 6956.94 1494.4 6998.73 1486.83C7014.15 1484.03 7029.43 1482.63 7044.58 1482.63C7107.68 1482.63 7148.2 1500.29 7166.15 1535.63C7178.21 1559.19 7184.24 1606.72 7184.24 1678.23V1840.19C7178.35 1837.95 7156.05 1828.83 7117.35 1812.85C7117.35 1803.87 7115.53 1798.12 7111.88 1795.6C7097.02 1804.29 7084.82 1810.88 7075.29 1815.37C7045 1829.67 7009.8 1836.82 6969.7 1836.82C6914.45 1836.82 6871.83 1819.44 6841.82 1784.66C6827.24 1767.84 6819.94 1749.05 6819.94 1728.29C6819.94 1705.02 6831.44 1681.88 6854.44 1658.88C6899.03 1614.29 6954.42 1592 7020.6 1592C7060.7 1592 7092.95 1601.25 7117.35 1619.76V1581.06C7105.01 1565.36 7092.95 1554.84 7081.18 1549.51C7069.68 1544.18 7053.83 1541.8 7033.64 1542.36C6988.49 1543.2 6947.12 1551.47 6909.55 1567.18C6892.72 1574.19 6876.31 1580.5 6860.33 1586.11V1554.98C6863.97 1551.89 6869.3 1547.27 6876.31 1541.1C6877.43 1539.7 6878.14 1538.85 6878.42 1538.57V1430.04H6792.18V1379.56H7213.69V1430.04ZM7117.35 1696.32C7117.35 1683.98 7102.63 1672.91 7073.18 1663.09C7048.78 1654.96 7028.45 1650.89 7012.19 1650.89C6953.01 1650.89 6905.62 1672.2 6870 1714.83C6855.7 1731.94 6848.55 1745.96 6848.55 1756.9C6854.44 1777.37 6877.57 1787.61 6917.96 1787.61C6970.12 1787.61 7017.8 1774.57 7060.98 1748.49C7098.56 1725.77 7117.35 1708.38 7117.35 1696.32ZM7317.59 1206.25C7317.59 1228.68 7301.6 1249.02 7269.63 1267.25C7256.45 1274.82 7244.53 1278.6 7233.88 1278.6C7240.05 1272.71 7248.88 1263.32 7260.38 1250.42C7263.46 1246.21 7265.01 1241.87 7265.01 1237.38C7265.01 1228.96 7255.47 1217.19 7236.4 1202.04L7280.57 1161.24C7288.7 1161.24 7297.12 1166.71 7305.81 1177.64C7313.66 1188.02 7317.59 1197.56 7317.59 1206.25ZM7339.04 1430.04H7207.38V1379.56H7339.04V1430.04ZM7757.18 1430.04H7493.85C7494.41 1431.16 7494.69 1437.61 7494.69 1449.39V1479.26C7502.54 1478.14 7512.22 1477.58 7523.71 1477.58C7633.65 1477.58 7688.62 1521.19 7688.62 1608.4C7688.62 1668.7 7636.59 1728.71 7532.55 1788.45C7588.92 1788.45 7631.69 1785.08 7660.85 1778.35C7680.76 1773.87 7698.29 1767.27 7713.43 1758.58L7677.26 1835.98H7372.28L7389.52 1798.12C7469.73 1792.51 7533.11 1766.15 7579.66 1719.04C7603.22 1695.2 7615 1667.3 7615 1635.33C7615 1598.59 7597.89 1570.54 7563.68 1551.19C7535.91 1535.49 7502.26 1527.64 7462.72 1527.64C7437.76 1527.64 7410.14 1531 7379.85 1537.73C7392.19 1523.43 7410.28 1510.53 7434.11 1499.03V1430.04H7332.73V1379.56H7757.18V1430.04ZM8109.28 1430.04H8028.93V1485.15L8058.38 1487.25L8026.41 1549.09C7982.94 1539.84 7920.96 1535.21 7840.48 1535.21V1623.97C7871.04 1613.03 7902.87 1607.56 7935.97 1607.56C7970.18 1607.56 8002.15 1615.13 8031.88 1630.28C8065.53 1647.39 8082.36 1670.52 8082.36 1699.69C8082.36 1747.64 8052.91 1785.78 7994.02 1814.11C7963.73 1828.69 7927.69 1835.98 7885.91 1835.98C7872.17 1835.98 7844.12 1831.64 7801.77 1822.94L7870.76 1764.47C7894.04 1780.46 7925.87 1788.45 7966.25 1788.45C7984.76 1788.45 7997.94 1785.08 8005.8 1778.35C8013.93 1771.34 8018 1758.72 8018 1740.49C8018 1709.36 8002.29 1685.95 7970.88 1670.24C7946.2 1657.9 7916.48 1651.73 7881.7 1651.73C7850.01 1651.73 7823.65 1658.04 7802.62 1670.66V1486.41H7978.45V1430.04H7744.98V1379.56H8109.28V1430.04Z" fill="#D9B70E"/>
<path d="M5514.24 2011.95C5521.7 2032.62 5525.44 2054.74 5525.44 2078.28C5525.44 2122.51 5511.08 2160.41 5482.36 2192C5453.64 2223.59 5407.41 2239.1 5343.66 2238.53C5294.26 2237.95 5256.93 2229.34 5231.66 2212.68C5206.96 2196.02 5194.61 2173.05 5194.61 2143.76C5194.61 2117.91 5204.66 2088.33 5224.77 2055.02C5244.87 2022.28 5273.59 1988.4 5310.92 1953.36C5321.83 1943.6 5329.87 1934.12 5335.04 1924.93C5340.78 1915.74 5343.66 1907.7 5343.66 1900.81C5343.66 1894.49 5341.36 1889.32 5336.76 1885.3C5332.74 1881.86 5326.71 1880.13 5318.67 1880.13C5307.19 1880.13 5293.98 1883.87 5279.04 1891.33C5297.42 1875.25 5315.8 1867.21 5334.18 1867.21C5344.52 1867.21 5352.85 1869.8 5359.16 1874.96C5365.48 1880.71 5368.64 1887.89 5368.64 1896.5C5368.64 1910.29 5360.31 1925.22 5343.66 1941.3C5302.3 1980.36 5270.14 2017.4 5247.17 2052.44C5224.77 2087.47 5213.57 2118.2 5213.57 2144.62C5213.57 2169.32 5223.9 2188.27 5244.58 2201.48C5265.83 2215.27 5298 2222.44 5341.07 2223.02C5422.63 2223.59 5463.41 2196.89 5463.41 2142.9C5463.41 2127.96 5460.82 2112.74 5455.65 2097.24C5451.06 2082.3 5443.88 2061.91 5434.12 2036.07L5424.64 2011.95C5417.75 1992.99 5413.15 1974.33 5410.85 1955.95C5408.56 1938.14 5407.41 1916.89 5407.41 1892.19V1840.5V1810.35C5407.41 1790.25 5399.94 1781.06 5385.01 1782.78C5362.04 1788.53 5342.79 1797.14 5327.29 1808.63C5312.35 1819.54 5302.02 1831.31 5296.27 1843.95C5291.68 1832.46 5280.77 1822.7 5263.53 1814.66C5246.3 1806.04 5222.76 1796.28 5192.89 1785.37L5168.77 1776.75C5174.51 1774.45 5179.68 1770.43 5184.27 1764.69C5188.87 1758.95 5191.17 1751.77 5191.17 1743.15V1513.99C5191.17 1507.1 5188.87 1500.49 5184.27 1494.17C5180.25 1487.28 5175.09 1482.69 5168.77 1480.39C5199.78 1467.75 5222.18 1445.35 5235.97 1413.19C5249.75 1445.35 5272.15 1467.75 5303.16 1480.39C5296.85 1482.69 5291.39 1487.28 5286.8 1494.17C5282.78 1500.49 5280.77 1507.1 5280.77 1513.99V1775.03H5279.9L5280.77 1775.89C5297.42 1764.4 5320.97 1758.66 5351.41 1758.66C5363.47 1758.66 5375.53 1759.52 5387.59 1761.24L5395.35 1762.11C5399.37 1762.11 5402.24 1760.96 5403.96 1758.66C5406.26 1755.79 5407.41 1750.62 5407.41 1743.15V1513.99C5407.41 1507.1 5405.11 1500.49 5400.52 1494.17C5396.5 1487.28 5391.33 1482.69 5385.01 1480.39C5416.02 1467.75 5438.42 1445.35 5452.21 1413.19C5465.99 1445.35 5488.39 1467.75 5519.41 1480.39C5513.09 1482.69 5507.63 1487.28 5503.04 1494.17C5499.02 1500.49 5497.01 1507.1 5497.01 1513.99V1743.15C5497.01 1750.04 5499.02 1756.94 5503.04 1763.83C5507.63 1770.15 5513.09 1774.45 5519.41 1776.75C5513.09 1779.05 5507.63 1783.64 5503.04 1790.54C5499.02 1796.85 5497.01 1803.46 5497.01 1810.35V1840.5V1890.47C5497.01 1915.17 5498.16 1936.71 5500.45 1955.09C5502.75 1973.46 5507.35 1992.42 5514.24 2011.95Z" fill="#D9B70E"/>
<path d="M3159.14 1243.65V1259.28C3170.31 1278.26 3177.94 1310.09 3182.04 1354.76C3186.5 1407.98 3190.78 1441.3 3194.88 1454.7C3219.44 1537.33 3242.15 1596.89 3262.99 1633.36C3270.07 1645.65 3283.28 1673.38 3302.64 1716.56C3321.25 1757.87 3337.07 1789.51 3350.1 1811.47C3393.27 1883.69 3442.59 1915.7 3498.05 1907.51C3482.42 1926.12 3448.18 1948.27 3395.32 1973.95C3374.1 1984 3357.17 1986.23 3344.51 1980.65C3332.97 1975.07 3318.64 1959.43 3301.52 1933.75C3260.58 1873.08 3226.7 1800.12 3199.9 1714.88C3190.22 1702.6 3170.12 1650.49 3139.6 1558.55C3132.53 1536.59 3126.95 1509.04 3122.85 1475.91C3117.27 1430.87 3113.36 1403.14 3111.13 1392.72C3110.76 1389.74 3109.08 1379.14 3106.1 1360.9C3104.24 1346.75 3102.01 1335.59 3099.4 1327.4C3092.33 1301.71 3079.67 1285.71 3061.44 1279.38C3059.2 1278.64 3008.02 1280.68 2907.89 1285.52C2906.4 1294.83 2896.35 1304.88 2877.74 1315.67C2871.79 1319.02 2863.97 1323.12 2854.29 1327.95C2844.24 1332.79 2838.1 1335.77 2835.87 1336.89C2833.63 1344.33 2830.66 1352.71 2826.93 1362.01C2821.72 1374.67 2818.75 1381.93 2818 1383.79C2811.67 1400.17 2808.88 1417.29 2809.63 1435.16C2803.3 1403.14 2813.72 1360.9 2840.89 1308.41C2868.06 1256.67 2897.47 1221.87 2929.11 1204C2965.59 1182.79 3009.7 1177.2 3061.44 1187.25C3075.21 1189.49 3091.96 1199.35 3111.69 1216.85C3131.41 1233.22 3147.23 1242.16 3159.14 1243.65ZM2793.99 1567.48V1557.43C2799.95 1554.83 2829.35 1534.35 2882.21 1496.01C2917.94 1470.33 2953.3 1460.28 2988.29 1465.86C2993.5 1475.17 3006.16 1488.2 3026.26 1504.95C3027.38 1505.32 3029.61 1505.51 3032.96 1505.51C3035.94 1505.88 3038.17 1506.25 3039.66 1506.62C3048.97 1518.53 3050.27 1538.82 3043.57 1567.48C3041.71 1575.67 3038.54 1587.4 3034.08 1602.66C3029.24 1617.55 3026.26 1627.6 3025.14 1632.81C3025.52 1613.45 3018.44 1594.1 3003.93 1574.74C2989.78 1556.13 2972.1 1541.43 2950.88 1530.63C2928.18 1519.09 2906.96 1514.63 2887.23 1517.23C2864.53 1520.21 2846.85 1531.56 2834.19 1551.29C2832.33 1552.03 2825.82 1555.01 2814.65 1560.22C2806.46 1563.57 2799.58 1565.99 2793.99 1567.48ZM2732.58 1963.34H2726.99C2702.05 1956.27 2687.91 1934.31 2684.56 1897.46C2681.95 1863.21 2687.91 1835.85 2702.43 1815.38C2734.81 1770.72 2782.45 1751.55 2845.36 1757.87C2908.27 1763.83 2957.96 1779.65 2994.43 1805.33C3000.39 1809.8 3010.07 1815.75 3023.47 1823.2C3040.22 1832.88 3051.57 1839.58 3057.53 1843.3C3085.07 1860.79 3102.19 1876.61 3108.89 1890.76C3114.11 1881.08 3120.25 1874.01 3127.32 1869.54C3133.65 1865.45 3139.23 1864.33 3144.07 1866.19C3148.91 1868.42 3150.96 1872.7 3150.21 1879.03C3149.47 1886.85 3145.19 1895.78 3137.37 1905.83C3132.53 1908.44 3116.15 1921.65 3088.24 1945.47C3068.14 1962.6 3049.15 1970.04 3031.29 1967.81C3025.33 1934.31 3002.44 1899.13 2962.61 1862.28C2912.73 1815.75 2873.65 1792.86 2845.36 1793.61C2843.87 1793.61 2821.54 1802.17 2778.36 1819.29C2778.36 1819.66 2768.68 1822.27 2749.33 1827.11C2737.79 1830.09 2729.04 1834.92 2723.08 1841.62C2710.06 1856.51 2703.73 1878.29 2704.1 1906.95C2704.47 1937.84 2713.96 1956.64 2732.58 1963.34ZM2700.19 1938.22C2686.05 1916.63 2681.02 1890.39 2685.12 1859.49C2685.86 1852.05 2690.14 1848.7 2697.96 1849.44C2705.4 1850.19 2708.75 1854.28 2708.01 1861.72C2705.03 1882.94 2707.08 1901.55 2714.15 1917.56C2722.34 1937.29 2736.48 1947.89 2756.58 1949.38C2789.34 1951.62 2817.26 1936.73 2840.33 1904.72C2854.85 1884.62 2870.48 1856.51 2887.23 1820.41C2908.08 1775 2922.04 1746.15 2929.11 1733.87C3000.2 1607.68 3038.92 1537.89 3045.24 1524.49C3083.58 1441.86 3102.19 1364.99 3101.08 1293.9C3101.08 1286.82 3104.8 1283.66 3112.24 1284.4C3120.06 1285.15 3123.97 1289.06 3123.97 1296.13C3125.46 1378.39 3099.96 1471.08 3047.48 1574.18C3034.82 1599.12 3011 1642.11 2976.01 1703.16C2945.12 1757.5 2922.41 1800.31 2907.89 1831.57C2887.79 1874.01 2870.67 1904.34 2856.53 1922.58C2830.84 1954.97 2802 1971.53 2769.98 1972.27C2739.09 1973.39 2715.83 1962.04 2700.19 1938.22ZM3091.59 1637.83C3144.07 1641.55 3173.66 1643.41 3180.36 1643.41C3187.81 1643.79 3191.16 1647.7 3190.41 1655.14C3189.67 1662.96 3185.76 1666.68 3178.69 1666.31C3171.24 1666.31 3142.58 1664.45 3092.7 1660.72C3058.09 1658.12 3029.42 1658.3 3006.72 1661.28C2999.27 1662.03 2994.99 1658.68 2993.88 1651.23C2992.39 1643.79 2995.37 1639.51 3002.81 1638.39C3026.26 1635.41 3055.85 1635.23 3091.59 1637.83Z" fill="#D9B70E"/>
<g filter="url(#filter0_d_36_59)">
<path d="M1540.38 1716.31C1538.79 1709.5 1537.15 1702.71 1535.62 1695.88C1528.2 1664.45 1522.44 1632.65 1518.38 1600.62C1512.4 1548.6 1515.27 1497.52 1534.59 1448.21C1547.74 1415.47 1566.17 1385.11 1589.16 1358.35C1611.55 1331.77 1635.77 1306.97 1663.87 1286.35C1682.58 1272.62 1702.73 1261.34 1725.59 1256.55C1733.65 1254.75 1741.96 1254.28 1750.17 1255.17C1771.22 1257.94 1781.63 1275.41 1775.24 1295.86C1770.56 1310.76 1760.07 1321.4 1747.81 1330.21C1741.33 1334.67 1734.54 1338.65 1727.48 1342.13C1703.56 1354.54 1679.89 1367.31 1658.76 1384.25C1621.3 1414.28 1595.17 1452.49 1577.12 1496.56C1562.48 1532.28 1553.88 1569.56 1548.47 1607.66C1543.75 1642.55 1541.51 1677.74 1541.79 1712.95C1541.79 1714.01 1541.6 1715.08 1541.49 1716.12L1540.38 1716.31Z" fill="#D9B70E"/>
<path d="M1942.93 1973.23C1934.93 1972.05 1926.91 1970.9 1918.9 1969.71C1885.47 1964.71 1852.16 1958.94 1819.53 1949.83C1776.43 1937.81 1736.25 1919.87 1701.41 1891.09C1669.49 1864.74 1645.01 1832.46 1625.49 1796.28C1608.3 1764.35 1593.29 1731.53 1584.86 1696.09C1579.56 1673.77 1577.09 1651.13 1582.01 1628.39C1583.49 1621.67 1585.97 1615.22 1589.37 1609.24C1597.89 1594.55 1614.04 1590.25 1629.15 1597.96C1636.76 1602.02 1643.07 1608.13 1647.37 1615.6C1654.79 1627.95 1659.33 1641.82 1660.65 1656.17C1663.61 1683.6 1666.48 1711.06 1674.34 1737.68C1688.66 1786.29 1715.97 1826.6 1752.68 1860.93C1789.39 1895.26 1831.43 1921.36 1876.53 1942.96C1897.02 1952.79 1918.18 1961.27 1939.04 1970.33C1940.4 1970.92 1941.76 1971.44 1943.14 1971.99L1942.93 1973.23Z" fill="#D9B70E"/>
<path d="M1646.87 1220.5C1647.49 1220.01 1648.15 1219.56 1648.83 1219.16C1686.95 1198.85 1725.26 1178.98 1765.99 1164.27C1795.47 1153.63 1825.58 1146.09 1857.02 1144.18C1894.62 1141.85 1932.31 1147.17 1967.8 1159.82C2015.3 1176.59 2059.17 1200.11 2098.25 1232.04C2115.89 1246.44 2130.93 1263.39 2140.81 1284.24C2145.26 1293.56 2148.49 1303.4 2146.81 1313.83C2144.5 1328.26 2132.87 1338.07 2118.02 1338.86C2109.29 1339.18 2100.62 1337.31 2092.8 1333.41C2082.97 1328.92 2074.07 1322.65 2066.53 1314.91C2052.98 1300.74 2039.89 1286.09 2025.88 1272.35C1985.32 1232.61 1936.24 1209.67 1880.52 1200.6C1846.36 1195.38 1811.68 1194.35 1777.27 1197.53C1734.07 1201.09 1691.82 1209.67 1649.96 1220.54C1649.04 1220.78 1648.11 1220.93 1647.17 1221.14L1646.87 1220.5Z" fill="#D9B70E"/>
<path d="M2332.81 1628.29C2332.66 1629.19 2332.45 1630.09 2332.18 1630.97C2317.45 1671.85 2302.21 1712.53 2281.63 1750.94C2259.09 1793.02 2230.25 1829.69 2190.94 1857.57C2157.17 1881.56 2119.6 1897.01 2079.82 1907.52C2053.5 1914.46 2026.91 1920.29 1999.69 1921.97C1974.15 1923.64 1948.8 1922.4 1924.77 1912.44C1917.76 1909.56 1911.24 1905.62 1905.45 1900.73C1891.68 1888.94 1891.04 1871.32 1903.07 1857.74C1911.58 1848.03 1923.07 1843.84 1935.29 1841.27C1947.5 1838.69 1960.27 1839.4 1972.81 1840.71C1997.97 1843.25 2023.15 1845.37 2048.47 1843.25C2096.72 1839.25 2139.99 1821.96 2179.81 1794.91C2219.63 1767.86 2252.77 1734.53 2282.1 1697.01C2298.83 1675.6 2314.02 1652.98 2329.88 1630.91C2330.58 1629.95 2331.26 1628.95 2332.01 1627.97L2332.81 1628.29Z" fill="#D9B70E"/>
<path d="M2138.01 1189.73C2179.62 1225.91 2221.12 1262.09 2254.03 1306.99C2282.14 1345.31 2300.32 1387.74 2307.06 1434.89C2310.6 1460.63 2311.27 1486.68 2309.06 1512.57C2307 1542.89 2301.94 1572.92 2293.95 1602.24C2287.23 1626.03 2277.5 1648.59 2261.6 1667.83C2256.63 1673.93 2250.86 1679.32 2244.43 1683.86C2223.4 1698.33 2200.01 1688.73 2194.58 1663.81C2191.09 1647.83 2193.88 1632.37 2200.28 1617.71C2207.16 1601.92 2215.18 1586.64 2222.38 1570.89C2240.05 1533.1 2248.39 1491.62 2246.68 1449.93C2244.87 1415.57 2237.77 1381.68 2225.63 1349.48C2206.18 1296.14 2177.58 1247.81 2144.93 1201.69C2142.27 1197.92 2139.63 1194.15 2136.97 1190.41L2138.01 1189.73Z" fill="#D9B70E"/>
<path d="M1612.78 1085.56C1612.35 1097.25 1612.03 1108.97 1611.5 1120.64C1609.88 1160.24 1605.78 1199.71 1599.24 1238.8C1593.75 1270.54 1586.9 1301.91 1572.68 1331.13C1551.4 1374.82 1516.64 1400.02 1468.39 1405.62C1425.29 1410.66 1386.41 1398.53 1351.48 1373.35C1334.97 1361.44 1320.67 1347.3 1311.47 1328.79C1309.5 1324.11 1307.8 1319.31 1306.41 1314.42C1305.88 1313.32 1305.41 1312.19 1305 1311.04C1304.35 1309.43 1304.11 1307.69 1304.3 1305.97C1308.68 1291.86 1318.88 1284.69 1333.05 1282.37C1350.08 1279.52 1363.11 1286.39 1374.07 1298.72C1380.21 1306.15 1386.74 1313.26 1393.65 1320C1406.69 1332.34 1423.23 1340.34 1441 1342.9C1463.29 1345.94 1482.63 1338.64 1500.15 1325.47C1519 1311.29 1533.03 1292.88 1545.2 1272.96C1574.77 1224.52 1594.16 1172.1 1605.78 1116.7C1607.9 1106.36 1609.63 1095.89 1611.52 1085.48L1612.78 1085.56Z" fill="#D9B70E"/>
<path d="M1929.27 2119.93C1929.73 2118.9 1930.25 2117.89 1930.82 2116.91C1965.83 2065.38 2003.63 2016.06 2048.32 1972.48C2067.29 1953.98 2087.7 1937.32 2111.98 1926.12C2156.68 1905.52 2199.73 1911.1 2239.96 1937.34C2283.08 1965.46 2307.38 2006.32 2314.45 2057.21C2316.23 2068.18 2315.44 2079.41 2312.15 2090.03C2306.66 2106.54 2295.42 2112.35 2277.69 2107.75C2258.22 2102.69 2246.75 2087.34 2245.15 2064.83C2243.62 2043.54 2237.28 2023.9 2223.97 2006.98C2206.1 1984.21 2181.9 1976.37 2153.87 1978.42C2127.5 1980.33 2103.45 1989.91 2080.21 2001.83C2023.47 2030.54 1974.75 2069.74 1932.56 2117.2C1931.84 2118.01 1931.12 2118.84 1930.43 2119.65C1930.22 2119.78 1929.92 2119.76 1929.27 2119.93Z" fill="#D9B70E"/>
<path d="M2451.39 1742.18C2451.07 1741.83 2450.73 1741.52 2450.45 1741.15C2415.51 1690.86 2383.41 1638.99 2358.76 1582.66C2349.06 1560.48 2341.14 1537.75 2337.82 1513.59C2331.44 1466.77 2346.55 1427.95 2381.34 1396.53C2406.65 1373.72 2436.68 1361.35 2470.37 1357.05C2494.55 1353.99 2518.32 1355.41 2541.44 1363.67C2550.21 1366.68 2558.26 1371.5 2565.04 1377.83C2572.94 1385.34 2573.55 1398.53 2569.02 1407.24C2558.38 1427.31 2538.8 1435.27 2515.5 1428.52C2496.74 1423.01 2477.84 1421.03 2458.69 1425.46C2428.53 1432.42 2410.17 1451.98 2401.03 1480.8C2394.35 1501.91 2393.25 1523.66 2394.78 1545.56C2399.5 1613.16 2419.08 1676.56 2449.75 1736.7C2450.6 1738.37 2451.33 1740.09 2452.11 1741.77L2451.39 1742.18Z" fill="#D9B70E"/>
<path d="M1380.24 1677.73C1386.95 1680.56 1393.67 1683.3 1400.33 1686.24C1450.82 1708.05 1500.02 1732.29 1545.85 1762.86C1564.36 1775.25 1581.86 1788.91 1596.93 1805.55C1631.15 1843.61 1640.66 1887.53 1624.81 1935.68C1606.57 1991.14 1568.24 2027.34 1512.33 2044.48C1502.38 2047.6 1491.78 2048.08 1481.59 2045.86C1470.95 2043.5 1464.57 2036.54 1463.25 2026.11C1460.39 2003.12 1470.95 1986.01 1492.66 1977.84C1503.3 1973.82 1514.33 1970.2 1524.26 1964.73C1544.85 1953.4 1559.91 1937.06 1565.77 1913.48C1570.64 1894.07 1567 1875.4 1559.89 1857.21C1551.66 1836.14 1539.1 1817.68 1524.97 1800.25C1485.55 1751.6 1438.11 1712.42 1383.99 1681.07C1382.56 1680.26 1381.2 1679.39 1379.73 1678.55L1380.24 1677.73Z" fill="#D9B70E"/>
<path d="M2274.46 1127.49C2263.82 1129.94 2253.35 1132.52 2242.75 1134.84C2201.38 1144.21 2159.43 1150.77 2117.17 1154.48C2086.7 1156.91 2056.2 1158.01 2025.98 1151.65C1970.05 1139.86 1931.69 1101.1 1921.01 1044.81C1912.28 998.9 1920.79 956.163 1946.55 917.108C1952.35 907.973 1959.91 900.087 1968.79 893.91C1974.43 890.057 1980.6 886.652 1987.52 887.312C1992.27 887.656 1996.84 889.306 2000.71 892.079C2008.44 898.174 2013.78 906.803 2015.77 916.444C2017.75 926.085 2016.28 936.119 2011.59 944.777C2009.12 949.236 2006.33 953.504 2003.23 957.546C1989.97 975.893 1981.41 995.856 1981.56 1018.95C1981.73 1044.94 1994.18 1064.75 2014.06 1080.39C2033.94 1096.04 2056.5 1104.72 2080.25 1111.64C2108.95 1119.73 2138.35 1125.09 2168.06 1127.64C2196.7 1130.15 2225.49 1130.33 2254.15 1128.17C2260.86 1127.68 2267.52 1126.83 2274.2 1126.15L2274.46 1127.49Z" fill="#D9B70E"/>
<path d="M1740.09 1785.5C1740.09 1759.22 1759.58 1739.21 1785.1 1739.23C1796.7 1739.27 1807.81 1743.91 1815.99 1752.13C1824.17 1760.35 1828.76 1771.48 1828.75 1783.08C1828.75 1808.92 1808.94 1829.46 1784.06 1829.46C1778.27 1829.5 1772.54 1828.39 1767.18 1826.2C1761.83 1824 1756.97 1820.77 1752.88 1816.68C1748.79 1812.59 1745.55 1807.73 1743.35 1802.38C1741.16 1797.02 1740.05 1791.29 1740.09 1785.5Z" fill="#D9B70E"/>
<path d="M2071.03 1744.47C2071 1738.7 2072.12 1732.97 2074.31 1727.63C2076.5 1722.28 2079.72 1717.42 2083.8 1713.33C2087.87 1709.23 2092.71 1705.98 2098.04 1703.76C2103.38 1701.54 2109.1 1700.4 2114.88 1700.4C2126.96 1700.41 2138.55 1705.16 2147.16 1713.63C2155.78 1722.1 2160.73 1733.61 2160.95 1745.69C2160.99 1751.47 2159.88 1757.19 2157.69 1762.55C2155.5 1767.89 2152.28 1772.76 2148.2 1776.85C2144.12 1780.95 2139.27 1784.2 2133.93 1786.41C2128.59 1788.62 2122.87 1789.76 2117.09 1789.74C2091.82 1789.68 2071.01 1769.22 2071.03 1744.47Z" fill="#D9B70E"/>
<path d="M2168.62 1479.09C2162.84 1479.17 2157.1 1478.1 2151.74 1475.95C2146.37 1473.79 2141.49 1470.6 2137.37 1466.56C2133.24 1462.51 2129.96 1457.69 2127.7 1452.36C2125.45 1447.04 2124.28 1441.33 2124.24 1435.55C2124.01 1411.11 2145.53 1389.53 2170.28 1389.51C2181.95 1389.64 2193.1 1394.34 2201.34 1402.61C2209.58 1410.87 2214.25 1422.04 2214.33 1433.72C2214.33 1457.92 2193.2 1478.92 2168.62 1479.09Z" fill="#D9B70E"/>
<path d="M1659.96 1456.34C1685.3 1456.57 1704.8 1476.11 1704.5 1501.03C1704.2 1525.96 1684.15 1544.67 1658.57 1544.47C1633.56 1544.28 1613.73 1524.76 1614.03 1500.59C1614.32 1475.05 1634.05 1456.11 1659.96 1456.34Z" fill="#D9B70E"/>
<path d="M1841.87 1277.86C1841.96 1266.18 1846.66 1255.02 1854.95 1246.8C1863.24 1238.58 1874.45 1233.98 1886.12 1233.99C1911.06 1234.21 1931.07 1255.38 1930.66 1281.16C1930.46 1292.73 1925.73 1303.76 1917.48 1311.88C1909.24 1320.01 1898.14 1324.58 1886.57 1324.62C1861.68 1324.34 1841.74 1303.4 1841.87 1277.86Z" fill="#D9B70E"/>
</g>
<defs>
<filter id="filter0_d_36_59" x="1300.75" y="887.229" width="1274.6" height="1239.68" filterUnits="userSpaceOnUse" color-interpolation-filters="sRGB">
<feFlood flood-opacity="0" result="BackgroundImageFix"/>
<feColorMatrix in="SourceAlpha" type="matrix" values="0 0 0 0 0 0 0 0 0 0 0 0 0 0 0 0 0 0 127 0" result="hardAlpha"/>
<feOffset dy="3.48959"/>
<feGaussianBlur stdDeviation="1.7448"/>
<feComposite in2="hardAlpha" operator="out"/>
<feColorMatrix type="matrix" values="0 0 0 0 0 0 0 0 0 0 0 0 0 0 0 0 0 0 0.25 0"/>
<feBlend mode="normal" in2="BackgroundImageFix" result="effect1_dropShadow_36_59"/>
<feBlend mode="normal" in="SourceGraphic" in2="effect1_dropShadow_36_59" result="shape"/>
</filter>
</defs>
</svg>
