<svg width="3822" height="3521" viewBox="0 0 3822 3521" fill="none" xmlns="http://www.w3.org/2000/svg">
<g filter="url(#filter0_d_36_37)">
<path d="M1540.38 1716.31C1538.79 1709.5 1537.15 1702.71 1535.62 1695.88C1528.2 1664.45 1522.44 1632.65 1518.38 1600.62C1512.4 1548.6 1515.27 1497.52 1534.59 1448.21C1547.74 1415.47 1566.17 1385.11 1589.16 1358.35C1611.55 1331.77 1635.77 1306.97 1663.87 1286.35C1682.58 1272.62 1702.73 1261.34 1725.59 1256.55C1733.65 1254.75 1741.96 1254.28 1750.17 1255.17C1771.22 1257.94 1781.63 1275.41 1775.24 1295.86C1770.56 1310.76 1760.07 1321.4 1747.81 1330.21C1741.33 1334.67 1734.54 1338.65 1727.48 1342.13C1703.56 1354.54 1679.89 1367.31 1658.76 1384.25C1621.3 1414.28 1595.17 1452.49 1577.12 1496.56C1562.48 1532.28 1553.88 1569.56 1548.47 1607.66C1543.75 1642.55 1541.51 1677.74 1541.79 1712.95C1541.79 1714.01 1541.6 1715.08 1541.49 1716.12L1540.38 1716.31Z" fill="#D9B70E"/>
<path d="M1942.93 1973.23C1934.93 1972.05 1926.91 1970.9 1918.9 1969.71C1885.47 1964.71 1852.16 1958.94 1819.53 1949.83C1776.43 1937.81 1736.25 1919.87 1701.41 1891.09C1669.49 1864.74 1645.01 1832.46 1625.49 1796.28C1608.3 1764.35 1593.29 1731.53 1584.86 1696.09C1579.56 1673.77 1577.09 1651.13 1582.01 1628.39C1583.49 1621.67 1585.97 1615.22 1589.37 1609.24C1597.89 1594.55 1614.04 1590.25 1629.15 1597.96C1636.76 1602.02 1643.07 1608.13 1647.37 1615.6C1654.79 1627.95 1659.33 1641.82 1660.65 1656.17C1663.61 1683.6 1666.48 1711.06 1674.34 1737.68C1688.66 1786.29 1715.97 1826.6 1752.68 1860.93C1789.39 1895.26 1831.43 1921.36 1876.53 1942.96C1897.02 1952.79 1918.18 1961.27 1939.04 1970.33C1940.4 1970.92 1941.76 1971.44 1943.14 1971.99L1942.93 1973.23Z" fill="#D9B70E"/>
<path d="M1646.87 1220.5C1647.49 1220.01 1648.15 1219.56 1648.83 1219.16C1686.95 1198.85 1725.26 1178.98 1765.99 1164.27C1795.47 1153.63 1825.58 1146.09 1857.02 1144.18C1894.62 1141.85 1932.31 1147.17 1967.8 1159.82C2015.3 1176.59 2059.17 1200.11 2098.25 1232.04C2115.89 1246.44 2130.93 1263.39 2140.81 1284.24C2145.26 1293.56 2148.49 1303.4 2146.81 1313.83C2144.5 1328.26 2132.87 1338.07 2118.02 1338.86C2109.29 1339.18 2100.62 1337.31 2092.8 1333.41C2082.97 1328.92 2074.07 1322.65 2066.53 1314.91C2052.98 1300.74 2039.89 1286.09 2025.88 1272.35C1985.32 1232.61 1936.24 1209.67 1880.52 1200.6C1846.36 1195.38 1811.68 1194.35 1777.27 1197.53C1734.07 1201.09 1691.82 1209.67 1649.96 1220.54C1649.04 1220.78 1648.11 1220.93 1647.17 1221.14L1646.87 1220.5Z" fill="#D9B70E"/>
<path d="M2332.81 1628.29C2332.66 1629.19 2332.45 1630.09 2332.18 1630.97C2317.45 1671.85 2302.21 1712.53 2281.63 1750.94C2259.09 1793.02 2230.25 1829.69 2190.94 1857.57C2157.17 1881.56 2119.6 1897.01 2079.82 1907.52C2053.5 1914.46 2026.91 1920.29 1999.69 1921.97C1974.15 1923.64 1948.8 1922.4 1924.77 1912.44C1917.76 1909.56 1911.24 1905.62 1905.45 1900.73C1891.68 1888.94 1891.04 1871.32 1903.07 1857.74C1911.58 1848.03 1923.07 1843.84 1935.29 1841.27C1947.5 1838.69 1960.27 1839.4 1972.81 1840.71C1997.97 1843.25 2023.15 1845.37 2048.47 1843.25C2096.72 1839.25 2139.99 1821.96 2179.81 1794.91C2219.63 1767.86 2252.77 1734.53 2282.1 1697.01C2298.83 1675.6 2314.02 1652.98 2329.88 1630.91C2330.58 1629.95 2331.26 1628.95 2332.01 1627.97L2332.81 1628.29Z" fill="#D9B70E"/>
<path d="M2138.01 1189.73C2179.62 1225.91 2221.12 1262.09 2254.03 1306.99C2282.14 1345.31 2300.32 1387.74 2307.06 1434.89C2310.6 1460.63 2311.27 1486.68 2309.06 1512.57C2307 1542.89 2301.94 1572.92 2293.95 1602.24C2287.23 1626.03 2277.5 1648.59 2261.6 1667.83C2256.63 1673.93 2250.86 1679.32 2244.43 1683.86C2223.4 1698.33 2200.01 1688.73 2194.58 1663.81C2191.09 1647.83 2193.88 1632.37 2200.28 1617.71C2207.16 1601.92 2215.18 1586.64 2222.38 1570.89C2240.05 1533.1 2248.39 1491.62 2246.68 1449.93C2244.87 1415.57 2237.77 1381.68 2225.63 1349.48C2206.18 1296.14 2177.58 1247.81 2144.93 1201.69C2142.27 1197.92 2139.63 1194.15 2136.97 1190.41L2138.01 1189.73Z" fill="#D9B70E"/>
<path d="M1612.78 1085.56C1612.35 1097.25 1612.03 1108.97 1611.5 1120.64C1609.88 1160.24 1605.78 1199.71 1599.24 1238.8C1593.75 1270.54 1586.9 1301.91 1572.68 1331.13C1551.4 1374.82 1516.64 1400.02 1468.39 1405.62C1425.29 1410.66 1386.41 1398.53 1351.48 1373.35C1334.97 1361.44 1320.67 1347.3 1311.47 1328.79C1309.5 1324.11 1307.8 1319.31 1306.41 1314.42C1305.88 1313.32 1305.41 1312.19 1305 1311.04C1304.35 1309.43 1304.11 1307.69 1304.3 1305.97C1308.68 1291.86 1318.88 1284.69 1333.05 1282.37C1350.08 1279.52 1363.11 1286.39 1374.07 1298.72C1380.21 1306.15 1386.74 1313.26 1393.65 1320C1406.69 1332.34 1423.23 1340.34 1441 1342.9C1463.29 1345.94 1482.63 1338.64 1500.15 1325.47C1519 1311.29 1533.03 1292.88 1545.2 1272.96C1574.77 1224.52 1594.16 1172.1 1605.78 1116.7C1607.9 1106.36 1609.63 1095.89 1611.52 1085.48L1612.78 1085.56Z" fill="#D9B70E"/>
<path d="M1929.27 2119.93C1929.73 2118.9 1930.25 2117.89 1930.82 2116.91C1965.83 2065.38 2003.63 2016.06 2048.32 1972.48C2067.29 1953.98 2087.7 1937.32 2111.98 1926.12C2156.68 1905.52 2199.73 1911.1 2239.96 1937.34C2283.08 1965.46 2307.38 2006.32 2314.45 2057.21C2316.23 2068.18 2315.44 2079.41 2312.15 2090.03C2306.66 2106.54 2295.42 2112.35 2277.69 2107.75C2258.22 2102.69 2246.75 2087.34 2245.15 2064.83C2243.62 2043.54 2237.28 2023.9 2223.97 2006.98C2206.1 1984.21 2181.9 1976.37 2153.87 1978.42C2127.5 1980.33 2103.45 1989.91 2080.21 2001.83C2023.47 2030.54 1974.75 2069.74 1932.56 2117.2C1931.84 2118.01 1931.12 2118.84 1930.43 2119.65C1930.22 2119.78 1929.92 2119.76 1929.27 2119.93Z" fill="#D9B70E"/>
<path d="M2451.39 1742.18C2451.07 1741.83 2450.73 1741.52 2450.45 1741.15C2415.51 1690.86 2383.41 1638.99 2358.76 1582.66C2349.06 1560.48 2341.14 1537.75 2337.82 1513.59C2331.44 1466.77 2346.55 1427.95 2381.34 1396.53C2406.65 1373.72 2436.68 1361.35 2470.37 1357.05C2494.55 1353.99 2518.32 1355.41 2541.44 1363.67C2550.21 1366.68 2558.26 1371.5 2565.04 1377.83C2572.94 1385.34 2573.55 1398.53 2569.02 1407.24C2558.38 1427.31 2538.8 1435.27 2515.5 1428.52C2496.74 1423.01 2477.84 1421.03 2458.69 1425.46C2428.53 1432.42 2410.17 1451.98 2401.03 1480.8C2394.35 1501.91 2393.25 1523.66 2394.78 1545.56C2399.5 1613.16 2419.08 1676.56 2449.75 1736.7C2450.6 1738.37 2451.33 1740.09 2452.11 1741.77L2451.39 1742.18Z" fill="#D9B70E"/>
<path d="M1380.24 1677.73C1386.95 1680.56 1393.67 1683.3 1400.33 1686.24C1450.82 1708.05 1500.02 1732.29 1545.85 1762.86C1564.36 1775.25 1581.86 1788.91 1596.93 1805.55C1631.15 1843.61 1640.66 1887.53 1624.81 1935.68C1606.57 1991.14 1568.24 2027.34 1512.33 2044.48C1502.38 2047.6 1491.78 2048.08 1481.59 2045.86C1470.95 2043.5 1464.57 2036.54 1463.25 2026.11C1460.39 2003.12 1470.95 1986.01 1492.66 1977.84C1503.3 1973.82 1514.33 1970.2 1524.26 1964.73C1544.85 1953.4 1559.91 1937.06 1565.77 1913.48C1570.64 1894.07 1567 1875.4 1559.89 1857.21C1551.66 1836.14 1539.1 1817.68 1524.97 1800.25C1485.55 1751.6 1438.11 1712.42 1383.99 1681.07C1382.56 1680.26 1381.2 1679.39 1379.73 1678.55L1380.24 1677.73Z" fill="#D9B70E"/>
<path d="M2274.46 1127.49C2263.82 1129.94 2253.35 1132.52 2242.75 1134.84C2201.38 1144.21 2159.43 1150.77 2117.17 1154.48C2086.7 1156.91 2056.2 1158.01 2025.98 1151.65C1970.05 1139.86 1931.69 1101.1 1921.01 1044.81C1912.28 998.9 1920.79 956.163 1946.55 917.108C1952.35 907.973 1959.91 900.087 1968.79 893.91C1974.43 890.057 1980.6 886.652 1987.52 887.312C1992.27 887.656 1996.84 889.306 2000.71 892.079C2008.44 898.174 2013.78 906.803 2015.77 916.444C2017.75 926.085 2016.28 936.119 2011.59 944.777C2009.12 949.236 2006.33 953.504 2003.23 957.546C1989.97 975.893 1981.41 995.856 1981.56 1018.95C1981.73 1044.94 1994.18 1064.75 2014.06 1080.39C2033.94 1096.04 2056.5 1104.72 2080.25 1111.64C2108.95 1119.73 2138.35 1125.09 2168.06 1127.64C2196.7 1130.15 2225.49 1130.33 2254.15 1128.17C2260.86 1127.68 2267.52 1126.83 2274.2 1126.15L2274.46 1127.49Z" fill="#D9B70E"/>
<path d="M1740.09 1785.5C1740.09 1759.22 1759.58 1739.21 1785.1 1739.23C1796.7 1739.27 1807.81 1743.91 1815.99 1752.13C1824.17 1760.35 1828.76 1771.48 1828.75 1783.08C1828.75 1808.92 1808.94 1829.46 1784.06 1829.46C1778.27 1829.5 1772.54 1828.39 1767.18 1826.2C1761.83 1824 1756.97 1820.77 1752.88 1816.68C1748.79 1812.59 1745.55 1807.73 1743.35 1802.38C1741.16 1797.02 1740.05 1791.29 1740.09 1785.5Z" fill="#D9B70E"/>
<path d="M2071.03 1744.47C2071 1738.7 2072.12 1732.97 2074.31 1727.63C2076.5 1722.28 2079.72 1717.42 2083.8 1713.33C2087.87 1709.23 2092.71 1705.98 2098.04 1703.76C2103.38 1701.54 2109.1 1700.4 2114.88 1700.4C2126.96 1700.41 2138.55 1705.16 2147.16 1713.63C2155.78 1722.1 2160.73 1733.61 2160.95 1745.69C2160.99 1751.47 2159.88 1757.19 2157.69 1762.55C2155.5 1767.89 2152.28 1772.76 2148.2 1776.85C2144.12 1780.95 2139.27 1784.2 2133.93 1786.41C2128.59 1788.62 2122.87 1789.76 2117.09 1789.74C2091.82 1789.68 2071.01 1769.22 2071.03 1744.47Z" fill="#D9B70E"/>
<path d="M2168.62 1479.09C2162.84 1479.17 2157.1 1478.1 2151.74 1475.95C2146.37 1473.79 2141.49 1470.6 2137.37 1466.56C2133.24 1462.51 2129.96 1457.69 2127.7 1452.36C2125.45 1447.04 2124.28 1441.33 2124.24 1435.55C2124.01 1411.11 2145.53 1389.53 2170.28 1389.51C2181.95 1389.64 2193.1 1394.34 2201.34 1402.61C2209.58 1410.87 2214.25 1422.04 2214.33 1433.72C2214.33 1457.92 2193.2 1478.92 2168.62 1479.09Z" fill="#D9B70E"/>
<path d="M1659.96 1456.34C1685.3 1456.57 1704.8 1476.11 1704.5 1501.03C1704.2 1525.96 1684.15 1544.67 1658.57 1544.47C1633.56 1544.28 1613.73 1524.76 1614.03 1500.59C1614.32 1475.05 1634.05 1456.11 1659.96 1456.34Z" fill="#D9B70E"/>
<path d="M1841.87 1277.86C1841.96 1266.18 1846.66 1255.02 1854.95 1246.8C1863.24 1238.58 1874.45 1233.98 1886.12 1233.99C1911.06 1234.21 1931.07 1255.38 1930.66 1281.16C1930.46 1292.73 1925.73 1303.76 1917.48 1311.88C1909.24 1320.01 1898.14 1324.58 1886.57 1324.62C1861.68 1324.34 1841.74 1303.4 1841.87 1277.86Z" fill="#D9B70E"/>
</g>
<defs>
<filter id="filter0_d_36_37" x="1300.75" y="887.229" width="1274.6" height="1239.68" filterUnits="userSpaceOnUse" color-interpolation-filters="sRGB">
<feFlood flood-opacity="0" result="BackgroundImageFix"/>
<feColorMatrix in="SourceAlpha" type="matrix" values="0 0 0 0 0 0 0 0 0 0 0 0 0 0 0 0 0 0 127 0" result="hardAlpha"/>
<feOffset dy="3.48959"/>
<feGaussianBlur stdDeviation="1.7448"/>
<feComposite in2="hardAlpha" operator="out"/>
<feColorMatrix type="matrix" values="0 0 0 0 0 0 0 0 0 0 0 0 0 0 0 0 0 0 0.25 0"/>
<feBlend mode="normal" in2="BackgroundImageFix" result="effect1_dropShadow_36_37"/>
<feBlend mode="normal" in="SourceGraphic" in2="effect1_dropShadow_36_37" result="shape"/>
</filter>
</defs>
</svg>
