<svg width="6810" height="1352" viewBox="0 0 6810 1352" fill="none" xmlns="http://www.w3.org/2000/svg">
<path d="M2530.7 543.04H2078.49V492.56H2530.7V543.04ZM2440.26 727.71C2440.26 660.41 2408.43 626.75 2344.77 626.75C2297.66 626.75 2258.25 651.43 2226.56 700.79C2198.52 744.54 2184.5 791.09 2184.5 840.45V962.87L2115.51 926.69V610.35H2187.86V660.41L2225.3 632.22C2258.39 607.26 2293.31 594.78 2330.05 594.78C2379.96 594.78 2421.33 614.13 2454.14 652.84C2484.99 689.29 2500.42 732.9 2500.42 783.66C2500.42 847.32 2473.49 908.46 2419.65 967.07L2338.46 916.17C2363.7 891.21 2385.15 868.22 2402.82 847.18C2427.78 817.46 2440.26 777.63 2440.26 727.71ZM2935.38 543.04H2655.22V610.35C2656.34 610.35 2657.46 610.91 2658.58 612.03C2659.71 613.15 2660.69 613.71 2661.53 613.71C2659.29 613.71 2658.02 613.57 2657.74 613.29C2657.74 611.89 2678.64 607.4 2720.42 599.83C2735.85 597.03 2751.13 595.63 2766.28 595.63C2829.37 595.63 2869.9 613.29 2887.85 648.63C2899.91 672.19 2905.94 719.72 2905.94 791.23V953.19C2900.05 950.95 2877.75 941.83 2839.05 925.85C2839.05 916.87 2837.23 911.12 2833.58 908.6C2818.72 917.29 2806.52 923.88 2796.98 928.37C2766.7 942.67 2731.5 949.82 2691.4 949.82C2636.15 949.82 2593.52 932.44 2563.51 897.66C2548.93 880.84 2541.64 862.05 2541.64 841.29C2541.64 818.02 2553.14 794.88 2576.13 771.88C2620.73 727.29 2676.11 705 2742.3 705C2782.4 705 2814.65 714.25 2839.05 732.76V694.06C2826.71 678.36 2814.65 667.84 2802.87 662.51C2791.37 657.18 2775.53 654.8 2755.34 655.36C2710.19 656.2 2668.82 664.47 2631.24 680.18C2614.42 687.19 2598.01 693.5 2582.02 699.11V667.98C2585.67 664.89 2591 660.27 2598.01 654.1C2599.13 652.7 2599.83 651.85 2600.11 651.57V543.04H2513.88V492.56H2935.38V543.04ZM2839.05 809.32C2839.05 796.98 2824.33 785.91 2794.88 776.09C2770.48 767.96 2750.15 763.89 2733.88 763.89C2674.71 763.89 2627.32 785.2 2591.7 827.83C2577.4 844.94 2570.25 858.96 2570.25 869.9C2576.13 890.37 2599.27 900.61 2639.66 900.61C2691.82 900.61 2739.49 887.57 2782.68 861.49C2820.26 838.77 2839.05 821.38 2839.05 809.32ZM3345.11 543.04H3064.95V610.35C3066.07 610.35 3067.19 610.91 3068.31 612.03C3069.43 613.15 3070.42 613.71 3071.26 613.71C3069.01 613.71 3067.75 613.57 3067.47 613.29C3067.47 611.89 3088.36 607.4 3130.15 599.83C3145.57 597.03 3160.86 595.63 3176 595.63C3239.1 595.63 3279.63 613.29 3297.57 648.63C3309.63 672.19 3315.66 719.72 3315.66 791.23V953.19C3309.77 950.95 3287.48 941.83 3248.78 925.85C3248.78 916.87 3246.95 911.12 3243.31 908.6C3228.44 917.29 3216.25 923.88 3206.71 928.37C3176.42 942.67 3141.23 949.82 3101.12 949.82C3045.88 949.82 3003.25 932.44 2973.24 897.66C2958.66 880.84 2951.37 862.05 2951.37 841.29C2951.37 818.02 2962.87 794.88 2985.86 771.88C3030.45 727.29 3085.84 705 3152.02 705C3192.13 705 3224.38 714.25 3248.78 732.76V694.06C3236.44 678.36 3224.38 667.84 3212.6 662.51C3201.1 657.18 3185.26 654.8 3165.06 655.36C3119.91 656.2 3078.55 664.47 3040.97 680.18C3024.14 687.19 3007.74 693.5 2991.75 699.11V667.98C2995.4 664.89 3000.73 660.27 3007.74 654.1C3008.86 652.7 3009.56 651.85 3009.84 651.57V543.04H2923.6V492.56H3345.11V543.04ZM3248.78 809.32C3248.78 796.98 3234.05 785.91 3204.61 776.09C3180.21 767.96 3159.88 763.89 3143.61 763.89C3084.44 763.89 3037.04 785.2 3001.43 827.83C2987.12 844.94 2979.97 858.96 2979.97 869.9C2985.86 890.37 3009 900.61 3049.38 900.61C3101.54 900.61 3149.22 887.57 3192.41 861.49C3229.99 838.77 3248.78 821.38 3248.78 809.32ZM3828.03 543.04H3772.92L3772.08 954.03L3695.52 921.22V861.06C3650.09 919.68 3605.5 948.98 3561.75 948.98C3533.99 948.98 3503.7 937.35 3470.89 914.07C3442.84 894.16 3419.57 870.88 3401.06 844.24C3379.18 812.83 3368.39 782.26 3368.67 752.53C3368.95 725.33 3383.95 693.78 3413.68 657.88C3447.05 617.5 3487.29 597.31 3534.41 597.31C3564.42 597.31 3594.56 610.07 3624.85 635.59C3634.11 643.16 3657.66 667.56 3695.52 708.78V543.04H3335.43V492.56H3695.52C3695.52 434.51 3690.61 389.08 3680.8 356.27C3666.22 307.47 3633.68 249.42 3583.21 182.11C3582.08 181.55 3581.52 179.31 3581.52 175.38C3581.52 172.02 3582.36 169.77 3584.05 168.65H3664.39C3736.75 248.58 3772.92 356.55 3772.92 492.56H3828.03V543.04ZM3675.33 734.44C3675.33 712.57 3663.41 693.78 3639.57 678.08C3618.26 664.05 3596.11 657.04 3573.11 657.04C3556.28 657.04 3535.25 664.89 3510.01 680.6C3455.04 714.81 3427.56 755.2 3427.56 801.75C3427.56 827.27 3434.43 849.43 3448.17 868.22C3463.32 889.25 3483.09 899.77 3507.49 899.77C3532.73 899.77 3559.65 888.27 3588.25 865.27C3608.16 849.29 3626.67 829.65 3643.78 806.38C3664.81 777.77 3675.33 753.8 3675.33 734.44ZM4695.44 543.04H4415.28V610.35C4416.4 610.35 4417.52 610.91 4418.64 612.03C4419.77 613.15 4420.75 613.71 4421.59 613.71C4419.35 613.71 4418.08 613.57 4417.8 613.29C4417.8 611.89 4438.7 607.4 4480.48 599.83C4495.91 597.03 4511.19 595.63 4526.33 595.63C4589.43 595.63 4629.96 613.29 4647.91 648.63C4659.97 672.19 4665.99 719.72 4665.99 791.23V953.19C4660.11 950.95 4637.81 941.83 4599.11 925.85C4599.11 916.87 4597.29 911.12 4593.64 908.6C4578.78 917.29 4566.58 923.88 4557.04 928.37C4526.76 942.67 4491.56 949.82 4451.46 949.82C4396.21 949.82 4353.58 932.44 4323.57 897.66C4308.99 880.84 4301.7 862.05 4301.7 841.29C4301.7 818.02 4313.2 794.88 4336.19 771.88C4380.78 727.29 4436.17 705 4502.36 705C4542.46 705 4574.71 714.25 4599.11 732.76V694.06C4586.77 678.36 4574.71 667.84 4562.93 662.51C4551.43 657.18 4535.59 654.8 4515.4 655.36C4470.25 656.2 4428.88 664.47 4391.3 680.18C4374.47 687.19 4358.07 693.5 4342.08 699.11V667.98C4345.73 664.89 4351.06 660.27 4358.07 654.1C4359.19 652.7 4359.89 651.85 4360.17 651.57V543.04H4273.94V492.56H4695.44V543.04ZM4599.11 809.32C4599.11 796.98 4584.39 785.91 4554.94 776.09C4530.54 767.96 4510.21 763.89 4493.94 763.89C4434.77 763.89 4387.37 785.2 4351.76 827.83C4337.46 844.94 4330.3 858.96 4330.3 869.9C4336.19 890.37 4359.33 900.61 4399.71 900.61C4451.88 900.61 4499.55 887.57 4542.74 861.49C4580.32 838.77 4599.11 821.38 4599.11 809.32ZM5142.19 543.04H4689.97V492.56H5142.19V543.04ZM5051.74 727.71C5051.74 660.41 5019.91 626.75 4956.25 626.75C4909.14 626.75 4869.74 651.43 4838.05 700.79C4810 744.54 4795.98 791.09 4795.98 840.45V962.87L4726.99 926.69V610.35H4799.35V660.41L4836.78 632.22C4869.88 607.26 4904.79 594.78 4941.53 594.78C4991.45 594.78 5032.81 614.13 5065.63 652.84C5096.47 689.29 5111.9 732.9 5111.9 783.66C5111.9 847.32 5084.98 908.46 5031.13 967.07L4949.94 916.17C4975.18 891.21 4996.64 868.22 5014.3 847.18C5039.26 817.46 5051.74 777.63 5051.74 727.71ZM5508.16 543.04H5295.31V881.68C5295.31 891.21 5298.39 900.47 5304.56 909.44C5311.01 919.26 5318.87 924.16 5328.12 924.16C5369.91 924.16 5390.8 880.98 5390.8 794.6L5475.35 842.98C5443.1 914.49 5393.18 950.11 5325.6 949.82C5286.33 949.54 5255.77 931.6 5233.89 895.98C5224.36 880.56 5219.59 865.13 5219.59 849.71V543.04H5131.67V492.56H5219.59V351.22L5295.31 403.8V492.56H5508.16V543.04ZM5913.69 543.04H5633.52V610.35C5634.64 610.35 5635.77 610.91 5636.89 612.03C5638.01 613.15 5638.99 613.71 5639.83 613.71C5637.59 613.71 5636.33 613.57 5636.05 613.29C5636.05 611.89 5656.94 607.4 5698.73 599.83C5714.15 597.03 5729.43 595.63 5744.58 595.63C5807.68 595.63 5848.2 613.29 5866.15 648.63C5878.21 672.19 5884.24 719.72 5884.24 791.23V953.19C5878.35 950.95 5856.05 941.83 5817.35 925.85C5817.35 916.87 5815.53 911.12 5811.88 908.6C5797.02 917.29 5784.82 923.88 5775.29 928.37C5745 942.67 5709.8 949.82 5669.7 949.82C5614.45 949.82 5571.83 932.44 5541.82 897.66C5527.24 880.84 5519.94 862.05 5519.94 841.29C5519.94 818.02 5531.44 794.88 5554.44 771.88C5599.03 727.29 5654.42 705 5720.6 705C5760.7 705 5792.95 714.25 5817.35 732.76V694.06C5805.01 678.36 5792.95 667.84 5781.18 662.51C5769.68 657.18 5753.83 654.8 5733.64 655.36C5688.49 656.2 5647.12 664.47 5609.55 680.18C5592.72 687.19 5576.31 693.5 5560.33 699.11V667.98C5563.97 664.89 5569.3 660.27 5576.31 654.1C5577.43 652.7 5578.14 651.85 5578.42 651.57V543.04H5492.18V492.56H5913.69V543.04ZM5817.35 809.32C5817.35 796.98 5802.63 785.91 5773.18 776.09C5748.78 767.96 5728.45 763.89 5712.19 763.89C5653.01 763.89 5605.62 785.2 5570 827.83C5555.7 844.94 5548.55 858.96 5548.55 869.9C5554.44 890.37 5577.57 900.61 5617.96 900.61C5670.12 900.61 5717.8 887.57 5760.98 861.49C5798.56 838.77 5817.35 821.38 5817.35 809.32ZM6017.59 319.25C6017.59 341.68 6001.6 362.02 5969.63 380.25C5956.45 387.82 5944.53 391.6 5933.88 391.6C5940.05 385.71 5948.88 376.32 5960.38 363.42C5963.46 359.21 5965.01 354.87 5965.01 350.38C5965.01 341.96 5955.47 330.19 5936.4 315.04L5980.57 274.24C5988.7 274.24 5997.12 279.71 6005.81 290.64C6013.66 301.02 6017.59 310.56 6017.59 319.25ZM6039.04 543.04H5907.38V492.56H6039.04V543.04ZM6457.18 543.04H6193.85C6194.41 544.16 6194.69 550.61 6194.69 562.39V592.26C6202.54 591.14 6212.22 590.58 6223.71 590.58C6333.65 590.58 6388.62 634.19 6388.62 721.4C6388.62 781.7 6336.59 841.71 6232.55 901.45C6288.92 901.45 6331.69 898.08 6360.85 891.35C6380.76 886.87 6398.29 880.27 6413.43 871.58L6377.26 948.98H6072.28L6089.52 911.12C6169.73 905.51 6233.11 879.15 6279.66 832.04C6303.22 808.2 6315 780.3 6315 748.33C6315 711.59 6297.89 683.54 6263.68 664.19C6235.91 648.49 6202.26 640.64 6162.72 640.64C6137.76 640.64 6110.14 644 6079.85 650.73C6092.19 636.43 6110.28 623.53 6134.11 612.03V543.04H6032.73V492.56H6457.18V543.04ZM6809.28 543.04H6728.93V598.15L6758.38 600.25L6726.41 662.09C6682.94 652.84 6620.96 648.21 6540.48 648.21V736.97C6571.04 726.03 6602.87 720.56 6635.97 720.56C6670.18 720.56 6702.15 728.13 6731.88 743.28C6765.53 760.39 6782.36 783.52 6782.36 812.69C6782.36 860.64 6752.91 898.78 6694.02 927.11C6663.73 941.69 6627.69 948.98 6585.91 948.98C6572.17 948.98 6544.12 944.64 6501.77 935.94L6570.76 877.47C6594.04 893.46 6625.87 901.45 6666.25 901.45C6684.76 901.45 6697.94 898.08 6705.8 891.35C6713.93 884.34 6718 871.72 6718 853.49C6718 822.36 6702.29 798.95 6670.88 783.24C6646.2 770.9 6616.48 764.73 6581.7 764.73C6550.01 764.73 6523.65 771.04 6502.62 783.66V599.41H6678.45V543.04H6444.98V492.56H6809.28V543.04Z" fill="#D9B70E"/>
<path d="M4214.24 1124.95C4221.7 1145.62 4225.44 1167.74 4225.44 1191.28C4225.44 1235.51 4211.08 1273.41 4182.36 1305C4153.64 1336.59 4107.41 1352.1 4043.66 1351.53C3994.26 1350.95 3956.93 1342.34 3931.66 1325.68C3906.96 1309.02 3894.61 1286.05 3894.61 1256.76C3894.61 1230.91 3904.66 1201.33 3924.77 1168.02C3944.87 1135.28 3973.59 1101.4 4010.92 1066.36C4021.83 1056.6 4029.87 1047.12 4035.04 1037.93C4040.78 1028.74 4043.66 1020.7 4043.66 1013.81C4043.66 1007.49 4041.36 1002.32 4036.76 998.3C4032.74 994.86 4026.71 993.13 4018.67 993.13C4007.19 993.13 3993.98 996.87 3979.04 1004.33C3997.42 988.25 4015.8 980.21 4034.18 980.21C4044.52 980.21 4052.85 982.8 4059.16 987.96C4065.48 993.71 4068.64 1000.89 4068.64 1009.5C4068.64 1023.29 4060.31 1038.22 4043.66 1054.3C4002.3 1093.36 3970.14 1130.4 3947.17 1165.44C3924.77 1200.47 3913.57 1231.2 3913.57 1257.62C3913.57 1282.32 3923.9 1301.27 3944.58 1314.48C3965.83 1328.27 3998 1335.44 4041.07 1336.02C4122.63 1336.59 4163.41 1309.89 4163.41 1255.9C4163.41 1240.96 4160.82 1225.74 4155.65 1210.24C4151.06 1195.3 4143.88 1174.91 4134.12 1149.07L4124.64 1124.95C4117.75 1105.99 4113.15 1087.33 4110.85 1068.95C4108.56 1051.14 4107.41 1029.89 4107.41 1005.19V953.5V923.35C4107.41 903.25 4099.94 894.06 4085.01 895.78C4062.04 901.53 4042.79 910.14 4027.29 921.63C4012.35 932.54 4002.02 944.31 3996.27 956.95C3991.68 945.46 3980.77 935.7 3963.53 927.66C3946.3 919.04 3922.76 909.28 3892.89 898.37L3868.77 889.75C3874.51 887.45 3879.68 883.43 3884.27 877.69C3888.87 871.95 3891.17 864.77 3891.17 856.15V626.99C3891.17 620.1 3888.87 613.49 3884.27 607.17C3880.25 600.28 3875.09 595.69 3868.77 593.39C3899.78 580.75 3922.18 558.35 3935.97 526.19C3949.75 558.35 3972.15 580.75 4003.16 593.39C3996.85 595.69 3991.39 600.28 3986.8 607.17C3982.78 613.49 3980.77 620.1 3980.77 626.99V888.03H3979.9L3980.77 888.89C3997.42 877.4 4020.97 871.66 4051.41 871.66C4063.47 871.66 4075.53 872.52 4087.59 874.24L4095.35 875.11C4099.37 875.11 4102.24 873.96 4103.96 871.66C4106.26 868.79 4107.41 863.62 4107.41 856.15V626.99C4107.41 620.1 4105.11 613.49 4100.52 607.17C4096.5 600.28 4091.33 595.69 4085.01 593.39C4116.02 580.75 4138.42 558.35 4152.21 526.19C4165.99 558.35 4188.39 580.75 4219.41 593.39C4213.09 595.69 4207.63 600.28 4203.04 607.17C4199.02 613.49 4197.01 620.1 4197.01 626.99V856.15C4197.01 863.04 4199.02 869.94 4203.04 876.83C4207.63 883.15 4213.09 887.45 4219.41 889.75C4213.09 892.05 4207.63 896.64 4203.04 903.54C4199.02 909.85 4197.01 916.46 4197.01 923.35V953.5V1003.47C4197.01 1028.17 4198.16 1049.71 4200.45 1068.09C4202.75 1086.46 4207.35 1105.42 4214.24 1124.95Z" fill="#D9B70E"/>
<path d="M1859.14 356.65V372.28C1870.31 391.26 1877.94 423.09 1882.04 467.76C1886.5 520.98 1890.78 554.3 1894.88 567.7C1919.44 650.33 1942.15 709.89 1962.99 746.36C1970.07 758.65 1983.28 786.38 2002.64 829.56C2021.25 870.87 2037.07 902.51 2050.1 924.47C2093.27 996.69 2142.59 1028.7 2198.05 1020.51C2182.42 1039.12 2148.18 1061.27 2095.32 1086.95C2074.1 1097 2057.17 1099.23 2044.51 1093.65C2032.97 1088.07 2018.64 1072.43 2001.52 1046.75C1960.58 986.08 1926.7 913.12 1899.9 827.88C1890.22 815.6 1870.12 763.49 1839.6 671.55C1832.53 649.59 1826.95 622.04 1822.85 588.91C1817.27 543.87 1813.36 516.14 1811.13 505.72C1810.76 502.74 1809.08 492.14 1806.1 473.9C1804.24 459.75 1802.01 448.59 1799.4 440.4C1792.33 414.71 1779.67 398.71 1761.44 392.38C1759.2 391.64 1708.02 393.68 1607.89 398.52C1606.4 407.83 1596.35 417.88 1577.74 428.67C1571.79 432.02 1563.97 436.12 1554.29 440.95C1544.24 445.79 1538.1 448.77 1535.87 449.89C1533.63 457.33 1530.66 465.71 1526.93 475.01C1521.72 487.67 1518.75 494.93 1518 496.79C1511.67 513.17 1508.88 530.29 1509.63 548.16C1503.3 516.14 1513.72 473.9 1540.89 421.41C1568.06 369.67 1597.47 334.87 1629.11 317C1665.59 295.79 1709.7 290.2 1761.44 300.25C1775.21 302.49 1791.96 312.35 1811.69 329.85C1831.41 346.22 1847.23 355.16 1859.14 356.65ZM1493.99 680.48V670.43C1499.95 667.83 1529.35 647.35 1582.21 609.01C1617.94 583.33 1653.3 573.28 1688.29 578.86C1693.5 588.17 1706.16 601.2 1726.26 617.95C1727.38 618.32 1729.61 618.51 1732.96 618.51C1735.94 618.88 1738.17 619.25 1739.66 619.62C1748.97 631.53 1750.27 651.82 1743.57 680.48C1741.71 688.67 1738.54 700.4 1734.08 715.66C1729.24 730.55 1726.26 740.6 1725.14 745.81C1725.52 726.45 1718.44 707.1 1703.93 687.74C1689.78 669.13 1672.1 654.43 1650.88 643.63C1628.18 632.09 1606.96 627.63 1587.23 630.23C1564.53 633.21 1546.85 644.56 1534.19 664.29C1532.33 665.03 1525.82 668.01 1514.65 673.22C1506.46 676.57 1499.58 678.99 1493.99 680.48ZM1432.58 1076.34H1426.99C1402.05 1069.27 1387.91 1047.31 1384.56 1010.46C1381.95 976.21 1387.91 948.85 1402.43 928.38C1434.81 883.72 1482.45 864.55 1545.36 870.87C1608.27 876.83 1657.96 892.65 1694.43 918.33C1700.39 922.8 1710.07 928.75 1723.47 936.2C1740.22 945.88 1751.57 952.58 1757.53 956.3C1785.07 973.79 1802.19 989.61 1808.89 1003.76C1814.11 994.08 1820.25 987.01 1827.32 982.54C1833.65 978.45 1839.23 977.33 1844.07 979.19C1848.91 981.42 1850.96 985.7 1850.21 992.03C1849.47 999.85 1845.19 1008.78 1837.37 1018.83C1832.53 1021.44 1816.15 1034.65 1788.24 1058.47C1768.14 1075.6 1749.15 1083.04 1731.29 1080.81C1725.33 1047.31 1702.44 1012.13 1662.61 975.28C1612.73 928.75 1573.65 905.86 1545.36 906.61C1543.87 906.61 1521.54 915.17 1478.36 932.29C1478.36 932.66 1468.68 935.27 1449.33 940.11C1437.79 943.09 1429.04 947.92 1423.08 954.62C1410.06 969.51 1403.73 991.29 1404.1 1019.95C1404.47 1050.84 1413.96 1069.64 1432.58 1076.34ZM1400.19 1051.22C1386.05 1029.63 1381.02 1003.39 1385.12 972.49C1385.86 965.05 1390.14 961.7 1397.96 962.44C1405.4 963.19 1408.75 967.28 1408.01 974.72C1405.03 995.94 1407.08 1014.55 1414.15 1030.56C1422.34 1050.29 1436.48 1060.89 1456.58 1062.38C1489.34 1064.62 1517.26 1049.73 1540.33 1017.72C1554.85 997.62 1570.48 969.51 1587.23 933.41C1608.08 888 1622.04 859.15 1629.11 846.87C1700.2 720.68 1738.92 650.89 1745.24 637.49C1783.58 554.86 1802.19 477.99 1801.08 406.9C1801.08 399.82 1804.8 396.66 1812.24 397.4C1820.06 398.15 1823.97 402.06 1823.97 409.13C1825.46 491.39 1799.96 584.08 1747.48 687.18C1734.82 712.12 1711 755.11 1676.01 816.16C1645.12 870.5 1622.41 913.31 1607.89 944.57C1587.79 987.01 1570.67 1017.34 1556.53 1035.58C1530.84 1067.97 1502 1084.53 1469.98 1085.27C1439.09 1086.39 1415.83 1075.04 1400.19 1051.22ZM1791.59 750.83C1844.07 754.55 1873.66 756.41 1880.36 756.41C1887.81 756.79 1891.16 760.7 1890.41 768.14C1889.67 775.96 1885.76 779.68 1878.69 779.31C1871.24 779.31 1842.58 777.45 1792.7 773.72C1758.09 771.12 1729.42 771.3 1706.72 774.28C1699.27 775.03 1694.99 771.68 1693.88 764.23C1692.39 756.79 1695.37 752.51 1702.81 751.39C1726.26 748.41 1755.85 748.23 1791.59 750.83Z" fill="#D9B70E"/>
<g filter="url(#filter0_d_24_23)">
<path d="M240.38 829.31C238.79 822.5 237.15 815.71 235.62 808.88C228.2 777.45 222.44 745.65 218.38 713.62C212.4 661.6 215.27 610.52 234.59 561.21C247.74 528.47 266.17 498.11 289.16 471.35C311.55 444.77 335.77 419.97 363.87 399.35C382.58 385.62 402.73 374.34 425.59 369.55C433.65 367.75 441.96 367.28 450.17 368.17C471.22 370.94 481.63 388.41 475.24 408.86C470.56 423.76 460.07 434.4 447.81 443.21C441.33 447.67 434.54 451.65 427.48 455.13C403.56 467.54 379.89 480.31 358.76 497.25C321.3 527.28 295.17 565.49 277.12 609.56C262.48 645.28 253.88 682.56 248.47 720.66C243.75 755.55 241.51 790.74 241.79 825.95C241.79 827.01 241.6 828.08 241.49 829.12L240.38 829.31Z" fill="#D9B70E"/>
<path d="M642.93 1086.23C634.93 1085.05 626.91 1083.9 618.9 1082.71C585.47 1077.71 552.16 1071.94 519.53 1062.83C476.43 1050.81 436.25 1032.87 401.41 1004.09C369.49 977.74 345.01 945.46 325.49 909.28C308.3 877.35 293.29 844.53 284.86 809.09C279.56 786.77 277.09 764.13 282.01 741.39C283.49 734.67 285.97 728.22 289.37 722.24C297.89 707.55 314.04 703.25 329.15 710.96C336.76 715.02 343.07 721.13 347.37 728.6C354.79 740.95 359.33 754.82 360.65 769.17C363.61 796.6 366.48 824.06 374.34 850.68C388.66 899.29 415.97 939.6 452.68 973.93C489.39 1008.26 531.43 1034.36 576.53 1055.96C597.02 1065.79 618.18 1074.27 639.04 1083.33C640.4 1083.92 641.76 1084.44 643.14 1084.99L642.93 1086.23Z" fill="#D9B70E"/>
<path d="M346.87 333.5C347.49 333.01 348.15 332.56 348.83 332.16C386.95 311.85 425.26 291.98 465.99 277.27C495.47 266.63 525.58 259.09 557.02 257.18C594.62 254.85 632.31 260.17 667.8 272.82C715.3 289.59 759.17 313.11 798.25 345.04C815.89 359.44 830.93 376.39 840.81 397.24C845.26 406.56 848.49 416.4 846.81 426.83C844.5 441.26 832.87 451.07 818.02 451.86C809.29 452.18 800.62 450.31 792.8 446.41C782.97 441.92 774.07 435.65 766.53 427.91C752.98 413.74 739.89 399.09 725.88 385.35C685.32 345.61 636.24 322.67 580.52 313.6C546.36 308.38 511.68 307.35 477.27 310.53C434.07 314.09 391.82 322.67 349.96 333.54C349.04 333.78 348.11 333.93 347.17 334.14L346.87 333.5Z" fill="#D9B70E"/>
<path d="M1032.81 741.29C1032.66 742.19 1032.45 743.09 1032.18 743.97C1017.45 784.85 1002.21 825.53 981.63 863.94C959.09 906.02 930.25 942.69 890.94 970.57C857.17 994.56 819.6 1010.01 779.82 1020.52C753.5 1027.46 726.91 1033.29 699.69 1034.97C674.15 1036.64 648.8 1035.4 624.77 1025.44C617.76 1022.56 611.24 1018.62 605.45 1013.73C591.68 1001.94 591.04 984.32 603.07 970.74C611.58 961.03 623.07 956.84 635.29 954.27C647.5 951.69 660.27 952.4 672.81 953.71C697.97 956.25 723.15 958.37 748.47 956.25C796.72 952.25 839.99 934.96 879.81 907.91C919.63 880.86 952.77 847.53 982.1 810.01C998.83 788.6 1014.02 765.98 1029.88 743.91C1030.58 742.95 1031.26 741.95 1032.01 740.97L1032.81 741.29Z" fill="#D9B70E"/>
<path d="M838.01 302.73C879.62 338.91 921.12 375.09 954.03 419.99C982.14 458.31 1000.32 500.74 1007.06 547.89C1010.6 573.63 1011.27 599.68 1009.06 625.57C1007 655.89 1001.94 685.92 993.95 715.24C987.23 739.03 977.5 761.59 961.6 780.83C956.63 786.93 950.86 792.32 944.43 796.86C923.4 811.33 900.01 801.73 894.58 776.81C891.09 760.83 893.88 745.37 900.28 730.71C907.16 714.92 915.18 699.64 922.38 683.89C940.05 646.1 948.39 604.62 946.68 562.93C944.87 528.57 937.77 494.68 925.63 462.48C906.18 409.14 877.58 360.81 844.93 314.69C842.27 310.92 839.63 307.15 836.97 303.41L838.01 302.73Z" fill="#D9B70E"/>
<path d="M312.78 198.56C312.35 210.25 312.03 221.97 311.5 233.64C309.88 273.24 305.78 312.71 299.24 351.8C293.75 383.54 286.9 414.91 272.68 444.13C251.4 487.82 216.64 513.02 168.39 518.62C125.29 523.66 86.4099 511.53 51.4799 486.35C34.9699 474.44 20.6699 460.3 11.4699 441.79C9.49993 437.11 7.79999 432.31 6.40999 427.42C5.87999 426.32 5.40996 425.19 4.99996 424.04C4.34996 422.43 4.11001 420.69 4.30001 418.97C8.68001 404.86 18.88 397.69 33.05 395.37C50.08 392.52 63.1099 399.39 74.0699 411.72C80.2099 419.15 86.74 426.26 93.65 433C106.69 445.34 123.23 453.34 141 455.9C163.29 458.94 182.63 451.64 200.15 438.47C219 424.29 233.03 405.88 245.2 385.96C274.77 337.52 294.16 285.1 305.78 229.7C307.9 219.36 309.63 208.89 311.52 198.48L312.78 198.56Z" fill="#D9B70E"/>
<path d="M629.27 1232.93C629.73 1231.9 630.25 1230.89 630.82 1229.91C665.83 1178.38 703.63 1129.06 748.32 1085.48C767.29 1066.98 787.7 1050.32 811.98 1039.12C856.68 1018.52 899.73 1024.1 939.96 1050.34C983.08 1078.46 1007.38 1119.32 1014.45 1170.21C1016.23 1181.18 1015.44 1192.41 1012.15 1203.03C1006.66 1219.54 995.42 1225.35 977.69 1220.75C958.22 1215.69 946.75 1200.34 945.15 1177.83C943.62 1156.54 937.28 1136.9 923.97 1119.98C906.1 1097.21 881.9 1089.37 853.87 1091.42C827.5 1093.33 803.45 1102.91 780.21 1114.83C723.47 1143.54 674.75 1182.74 632.56 1230.2C631.84 1231.01 631.12 1231.84 630.43 1232.65C630.22 1232.78 629.92 1232.76 629.27 1232.93Z" fill="#D9B70E"/>
<path d="M1151.39 855.18C1151.07 854.83 1150.73 854.52 1150.45 854.15C1115.51 803.86 1083.41 751.99 1058.76 695.66C1049.06 673.48 1041.14 650.75 1037.82 626.59C1031.44 579.77 1046.55 540.95 1081.34 509.53C1106.65 486.72 1136.68 474.35 1170.37 470.05C1194.55 466.99 1218.32 468.41 1241.44 476.67C1250.21 479.68 1258.26 484.5 1265.04 490.83C1272.94 498.34 1273.55 511.53 1269.02 520.24C1258.38 540.31 1238.8 548.27 1215.5 541.52C1196.74 536.01 1177.84 534.03 1158.69 538.46C1128.53 545.42 1110.17 564.98 1101.03 593.8C1094.35 614.91 1093.25 636.66 1094.78 658.56C1099.5 726.16 1119.08 789.56 1149.75 849.7C1150.6 851.37 1151.33 853.09 1152.11 854.77L1151.39 855.18Z" fill="#D9B70E"/>
<path d="M80.24 790.73C86.95 793.56 93.67 796.3 100.33 799.24C150.82 821.05 200.02 845.29 245.85 875.86C264.36 888.25 281.86 901.91 296.93 918.55C331.15 956.61 340.66 1000.53 324.81 1048.68C306.57 1104.14 268.24 1140.34 212.33 1157.48C202.38 1160.6 191.78 1161.08 181.59 1158.86C170.95 1156.5 164.57 1149.54 163.25 1139.11C160.39 1116.12 170.95 1099.01 192.66 1090.84C203.3 1086.82 214.33 1083.2 224.26 1077.73C244.85 1066.4 259.91 1050.06 265.77 1026.48C270.64 1007.07 267 988.4 259.89 970.21C251.66 949.14 239.1 930.68 224.97 913.25C185.55 864.6 138.11 825.42 83.99 794.07C82.56 793.26 81.2 792.39 79.73 791.55L80.24 790.73Z" fill="#D9B70E"/>
<path d="M974.46 240.49C963.82 242.94 953.35 245.52 942.75 247.84C901.38 257.21 859.43 263.77 817.17 267.48C786.7 269.91 756.2 271.01 725.98 264.65C670.05 252.86 631.69 214.1 621.01 157.81C612.28 111.9 620.79 69.1629 646.55 30.1079C652.35 20.9729 659.91 13.0869 668.79 6.90987C674.43 3.05687 680.6 -0.34809 687.52 0.31191C692.27 0.65591 696.84 2.30588 700.71 5.07888C708.44 11.1739 713.78 19.8029 715.77 29.4439C717.75 39.0849 716.28 49.1189 711.59 57.7769C709.12 62.2359 706.33 66.5039 703.23 70.5459C689.97 88.8929 681.41 108.856 681.56 131.95C681.73 157.94 694.18 177.75 714.06 193.39C733.94 209.04 756.5 217.72 780.25 224.64C808.95 232.73 838.35 238.09 868.06 240.64C896.7 243.15 925.49 243.33 954.15 241.17C960.86 240.68 967.52 239.83 974.2 239.15L974.46 240.49Z" fill="#D9B70E"/>
<path d="M440.09 898.5C440.09 872.22 459.58 852.21 485.1 852.23C496.7 852.27 507.81 856.91 515.99 865.13C524.17 873.35 528.76 884.48 528.75 896.08C528.75 921.92 508.94 942.46 484.06 942.46C478.27 942.5 472.54 941.39 467.18 939.2C461.83 937 456.97 933.77 452.88 929.68C448.79 925.59 445.55 920.73 443.35 915.38C441.16 910.02 440.05 904.29 440.09 898.5Z" fill="#D9B70E"/>
<path d="M771.03 857.47C771 851.7 772.12 845.97 774.31 840.63C776.5 835.28 779.72 830.42 783.8 826.33C787.87 822.23 792.71 818.98 798.04 816.76C803.38 814.54 809.1 813.4 814.88 813.4C826.96 813.41 838.55 818.16 847.16 826.63C855.78 835.1 860.73 846.61 860.95 858.69C860.99 864.47 859.88 870.19 857.69 875.55C855.5 880.89 852.28 885.76 848.2 889.85C844.12 893.95 839.27 897.2 833.93 899.41C828.59 901.62 822.87 902.76 817.09 902.74C791.82 902.68 771.01 882.22 771.03 857.47Z" fill="#D9B70E"/>
<path d="M868.62 592.09C862.84 592.17 857.1 591.1 851.74 588.95C846.37 586.79 841.49 583.6 837.37 579.56C833.24 575.51 829.96 570.69 827.7 565.36C825.45 560.04 824.28 554.33 824.24 548.55C824.01 524.11 845.53 502.53 870.28 502.51C881.95 502.64 893.1 507.34 901.34 515.61C909.58 523.87 914.25 535.04 914.33 546.72C914.33 570.92 893.2 591.92 868.62 592.09Z" fill="#D9B70E"/>
<path d="M359.96 569.34C385.3 569.57 404.8 589.11 404.5 614.03C404.2 638.96 384.15 657.67 358.57 657.47C333.56 657.28 313.73 637.76 314.03 613.59C314.32 588.05 334.05 569.11 359.96 569.34Z" fill="#D9B70E"/>
<path d="M541.87 390.86C541.96 379.18 546.66 368.02 554.95 359.8C563.24 351.58 574.45 346.98 586.12 346.99C611.06 347.21 631.07 368.38 630.66 394.16C630.46 405.73 625.73 416.76 617.48 424.88C609.24 433.01 598.14 437.58 586.57 437.62C561.68 437.34 541.74 416.4 541.87 390.86Z" fill="#D9B70E"/>
</g>
<defs>
<filter id="filter0_d_24_23" x="0.747216" y="0.229482" width="1274.59" height="1239.68" filterUnits="userSpaceOnUse" color-interpolation-filters="sRGB">
<feFlood flood-opacity="0" result="BackgroundImageFix"/>
<feColorMatrix in="SourceAlpha" type="matrix" values="0 0 0 0 0 0 0 0 0 0 0 0 0 0 0 0 0 0 127 0" result="hardAlpha"/>
<feOffset dy="3.48959"/>
<feGaussianBlur stdDeviation="1.7448"/>
<feComposite in2="hardAlpha" operator="out"/>
<feColorMatrix type="matrix" values="0 0 0 0 0 0 0 0 0 0 0 0 0 0 0 0 0 0 0.25 0"/>
<feBlend mode="normal" in2="BackgroundImageFix" result="effect1_dropShadow_24_23"/>
<feBlend mode="normal" in="SourceGraphic" in2="effect1_dropShadow_24_23" result="shape"/>
</filter>
</defs>
</svg>
