<?xml version="1.0" encoding="iso-8859-1"?>
<!-- Uploaded to: SVG Repo, www.svgrepo.com, Generator: SVG Repo Mixer Tools -->
<svg version="1.1" id="Layer_1" xmlns="http://www.w3.org/2000/svg" xmlns:xlink="http://www.w3.org/1999/xlink" 
	 viewBox="0 0 512 512" xml:space="preserve">
<!-- <circle style="fill:#FFD15D;" cx="256" cy="256" r="256"/> -->
<!-- <path style="fill:#F9B54C;" d="M512,256c0-11.945-0.838-23.693-2.42-35.202l-88.598-88.598l-89.5,57.922l-212.199,203.55
	l117.62,117.62C243.209,511.757,249.575,512,256,512C397.384,512,512,397.384,512,256z"/> -->
<path style="fill:#B97850;" d="M257.507,295.674l163.475-163.475l-40.227-40.226L217.279,255.448
	c-11.107,11.107-27.212,15.557-42.467,11.81c-24.226-5.949-48.854-0.943-65.586,15.791c-27.77,27.77-23.268,77.298,10.057,110.623
	s82.853,37.828,110.623,10.057c16.732-16.732,21.74-41.362,15.791-65.586C241.948,322.886,246.398,306.781,257.507,295.674z"/>
<path style="fill:#935635;" d="M118.534,392.892c0.253,0.259,0.491,0.524,0.748,0.779c33.325,33.325,82.853,37.828,110.623,10.056
	c16.732-16.732,21.74-41.362,15.791-65.586c-3.746-15.255,0.703-31.36,11.81-42.467l163.475-163.475l-20.876-20.877L118.534,392.892
	z"/>
<path style="fill:#804000;" d="M242.71,303.563l152.117-152.117l-33.32-33.32L209.391,270.243
	c-9.2,9.201-22.538,12.886-35.175,9.783c-20.066-4.929-40.465-0.781-54.324,13.079c-23.002,23.002-19.273,64.024,8.33,91.627
	c27.603,27.603,68.625,31.332,91.627,8.33c13.858-13.858,18.006-34.259,13.079-54.324
	C229.824,326.101,233.51,312.763,242.71,303.563z"/>
<path style="fill:#683100;" d="M127.474,383.952c0.252,0.259,0.491,0.524,0.748,0.779c27.601,27.601,68.625,31.332,91.627,8.33
	c13.858-13.86,18.006-34.259,13.079-54.324c-3.103-12.636,0.583-25.974,9.783-35.175L394.83,151.445l-17.423-17.424L127.474,383.952
	z"/>
<g>
	
		<rect x="330.243" y="122.711" transform="matrix(-0.7071 -0.7071 0.7071 -0.7071 542.9741 477.2245)" style="fill:#935635;" width="80.161" height="6.896"/>
	
		<rect x="316.232" y="136.743" transform="matrix(-0.7071 -0.7071 0.7071 -0.7071 509.1334 491.2724)" style="fill:#935635;" width="80.161" height="6.896"/>
	
		<rect x="301.891" y="151.057" transform="matrix(-0.7071 -0.7071 0.7071 -0.7071 474.5302 505.5662)" style="fill:#935635;" width="80.161" height="6.896"/>
	
		<rect x="277.795" y="175.187" transform="matrix(-0.7071 -0.7071 0.7071 -0.7071 416.3334 529.7196)" style="fill:#935635;" width="80.161" height="6.896"/>
	
		<rect x="264.898" y="188.052" transform="matrix(-0.7071 -0.7071 0.7071 -0.7071 385.22 542.5627)" style="fill:#935635;" width="80.161" height="6.896"/>
	
		<rect x="271.878" y="209.175" transform="matrix(-0.7071 -0.7071 0.7071 -0.7071 362.3349 575.3288)" style="fill:#935635;" width="56.888" height="6.896"/>
	
		<rect x="259.01" y="222.052" transform="matrix(-0.7071 -0.7071 0.7071 -0.7071 331.2631 588.2136)" style="fill:#935635;" width="56.888" height="6.896"/>
	
		<rect x="246.126" y="234.93" transform="matrix(-0.7071 -0.7071 0.7071 -0.7071 300.1619 601.0862)" style="fill:#935635;" width="56.888" height="6.896"/>
	
		<rect x="233.217" y="247.825" transform="matrix(-0.7071 -0.7071 0.7071 -0.7071 269.0069 613.9709)" style="fill:#935635;" width="56.888" height="6.896"/>
	
		<rect x="220.35" y="260.702" transform="matrix(-0.7071 -0.7071 0.7071 -0.7071 237.9345 626.8543)" style="fill:#935635;" width="56.887" height="6.896"/>
	
		<rect x="207.482" y="273.583" transform="matrix(-0.7071 -0.7071 0.7071 -0.7071 206.8603 639.745)" style="fill:#935635;" width="56.887" height="6.896"/>
</g>
<g>
	
		<rect x="373.458" y="140.628" transform="matrix(0.7071 0.7071 -0.7071 0.7071 215.585 -232.3166)" style="fill:#804000;" width="29.53" height="6.896"/>
	
		<rect x="359.456" y="154.643" transform="matrix(0.7071 0.7071 -0.7071 0.7071 221.3941 -218.3103)" style="fill:#804000;" width="29.53" height="6.896"/>
	
		<rect x="345.123" y="168.986" transform="matrix(0.7071 0.7071 -0.7071 0.7071 227.3382 -203.9749)" style="fill:#804000;" width="29.53" height="6.896"/>
	
		<rect x="321.002" y="193.074" transform="matrix(0.7071 0.7071 -0.7071 0.7071 237.3059 -179.8631)" style="fill:#804000;" width="29.53" height="6.896"/>
	
		<rect x="308.114" y="205.969" transform="matrix(0.7071 0.7071 -0.7071 0.7071 242.6492 -166.9733)" style="fill:#804000;" width="29.53" height="6.896"/>
	
		<rect x="295.238" y="218.859" transform="matrix(0.7071 0.7071 -0.7071 0.7071 247.9925 -154.0935)" style="fill:#804000;" width="29.53" height="6.896"/>
	
		<rect x="282.363" y="231.724" transform="matrix(0.7071 0.7071 -0.7071 0.7071 253.3185 -141.2209)" style="fill:#804000;" width="29.53" height="6.896"/>
	
		<rect x="269.475" y="244.619" transform="matrix(0.7071 0.7071 -0.7071 0.7071 258.6617 -128.3311)" style="fill:#804000;" width="29.53" height="6.896"/>
	
		<rect x="256.599" y="257.509" transform="matrix(0.7071 0.7071 -0.7071 0.7071 264.005 -115.4513)" style="fill:#804000;" width="29.53" height="6.896"/>
	
		<rect x="243.712" y="270.386" transform="matrix(0.7071 0.7071 -0.7071 0.7071 269.3361 -102.5665)" style="fill:#804000;" width="29.53" height="6.896"/>
	
		<rect x="230.807" y="283.264" transform="matrix(0.7071 0.7071 -0.7071 0.7071 274.6621 -89.6695)" style="fill:#804000;" width="29.53" height="6.896"/>
</g>
<g>
	<circle style="fill:#B97850;" cx="341.988" cy="97.823" r="7.758"/>
	<circle style="fill:#B97850;" cx="327.732" cy="112.088" r="7.758"/>
	<circle style="fill:#B97850;" cx="289.754" cy="150.066" r="7.758"/>
	<circle style="fill:#B97850;" cx="276.532" cy="163.288" r="7.758"/>
	<circle style="fill:#B97850;" cx="313.475" cy="126.345" r="7.758"/>
	
		<rect x="136.446" y="338.566" transform="matrix(-0.7071 -0.7071 0.7071 -0.7071 43.7019 707.3008)" style="fill:#B97850;" width="63.784" height="12.067"/>
</g>
<rect x="162.75" y="349.472" transform="matrix(0.7071 0.7071 -0.7071 0.7071 303.8783 -22.6157)" style="fill:#935635;" width="32.978" height="12.067"/>
</svg>